<?xml version="1.0" standalone="no"?><!DOCTYPE svg PUBLIC "-//W3C//DTD SVG 1.1//EN" "http://www.w3.org/Graphics/SVG/1.1/DTD/svg11.dtd"><svg t="1532571012974" class="icon" style="" viewBox="0 0 1024 1024" version="1.1" xmlns="http://www.w3.org/2000/svg" p-id="2028" xmlns:xlink="http://www.w3.org/1999/xlink" width="16" height="16"><defs><style type="text/css"></style></defs><path d="M149.057133 713.479511c0 9.487112 0.729778 18.974225 2.067704 28.218078h131.724908c-0.851408-8.027557-1.459556-16.298373-1.459556-24.447559 0-72.734529 36.732153-137.441501 93.533199-178.673952-26.880152-0.12163-53.273785-7.905927-75.775271-22.623114C211.818031 544.171042 149.057133 621.892386 149.057133 713.479511z m222.947143-197.283288c31.380449 0 60.328305-10.703409 83.437938-28.461338C407.520133 463.287326 374.680128 413.419171 374.680128 356.009977c0-41.110821 16.784891-78.329493 43.908303-105.088015-14.960447-5.351704-30.772301-8.149186-46.584155-8.149186-75.532011 0-136.590094 61.179713-136.590094 136.590094-0.12163 75.653641 61.058083 136.833353 136.590094 136.833353zM672.064616 707.154769v-31.623708h132.333056v-38.556598l70.545195 70.180306H672.064616z m195.093954 38.921487v31.623708H735.433662V816.134933l-70.545195-70.180307 202.270103 0.12163z" fill="#D7290F" p-id="2029"></path><path d="M491.566219 487.734885c20.79867 10.581779 43.665043 16.176743 67.017936 16.176743 81.613493 0 147.780021-66.288158 147.780021-147.780021s-66.288158-147.780021-147.780021-147.780021c-40.502673 0-77.356456 16.298373-103.993348 42.692006-27.123411 26.758522-43.908303 63.977194-43.908303 105.088015 0.12163 57.409193 32.840005 107.277349 80.883715 131.603278zM767.787148 613.378311c1.702815 0 3.40563 0.12163 5.108445 0.12163-27.4883-49.746526-73.950826-88.789642-130.508611-108.372016-23.961041 14.960447-51.6926 22.866374-80.032308 22.744744-29.312745 0-57.895712-8.514075-82.464901-24.447559-24.569189 7.905927-47.922081 19.825632-68.84238 35.029338-56.922675 41.35408-93.533199 105.939423-93.533199 178.673952 0 8.270816 0.486519 16.420002 1.459556 24.447559 0.243259 1.946074 0.486519 4.013778 0.729778 5.959853H620.372016c6.93289-75.167122 70.301936-134.157501 147.415132-134.157501z m-206.162252 79.30253l-59.598527-55.828008 56.679416-77.599715 2.919111-3.892149 58.138971 81.370234-3.040741 2.919112-55.09823 53.030526z" fill="#D7290F" p-id="2030"></path></svg>
