<?xml version="1.0" standalone="no"?><!DOCTYPE svg PUBLIC "-//W3C//DTD SVG 1.1//EN" "http://www.w3.org/Graphics/SVG/1.1/DTD/svg11.dtd"><svg t="1529129464042" class="icon" style="" viewBox="0 0 1024 1024" version="1.1" xmlns="http://www.w3.org/2000/svg" p-id="1598" xmlns:xlink="http://www.w3.org/1999/xlink" width="200" height="200"><defs><style type="text/css"></style></defs><path d="M604.985865 621.770757C541.616819 697.789286 476.180069 744.251811 376.808647 744.251811s-164.808172-61.301342-156.294097-135.130538c4.257038-48.530229 38.07008-128.805796 183.782397-116.156313 76.01853 6.324742 112.020905 21.041929 175.389952 42.205488 16.906521-29.556004 29.556004-63.369046 40.137783-97.182088h-278.896781v-27.488301h137.319872v-48.773488h-166.875876v-31.745338h166.875876v-71.761492s2.067704-10.581779 14.717187-10.581779h69.693788v82.343271H740.116403v29.556004H560.591044v48.651859h145.833947c-12.771113 55.09823-33.934672 105.817793-59.233638 148.023281 35.880746 12.649483 181.714693 57.044305 223.92018 69.693788V256.273667c0-59.112009-48.530229-105.574534-105.574533-105.574534h-509.020074c-59.233638 0-105.696163 48.530229-105.696163 105.574534v511.209407c0 59.112009 48.530229 105.574534 105.574533 105.574534h511.209408c59.112009 0 105.574534-48.530229 105.574533-105.574534v-25.420596c-35.880746-16.784891-196.43188-86.478679-268.193372-120.291721z m-354.91531-18.974225c-6.324742 27.4883 10.581779 93.04668 116.156313 93.04668 63.369046 0 126.738092-40.137784 177.457655-105.574534-71.883122-35.880746-130.99513-52.787267-198.621214-52.787267-59.112009 1.946074-88.789642 37.82682-94.992754 65.315121z" fill="#D7290F" p-id="1599"></path></svg>
