<?xml version="1.0" standalone="no"?><!DOCTYPE svg PUBLIC "-//W3C//DTD SVG 1.1//EN" "http://www.w3.org/Graphics/SVG/1.1/DTD/svg11.dtd"><svg t="1531104712425" class="icon" style="" viewBox="0 0 1024 1024" version="1.1" xmlns="http://www.w3.org/2000/svg" p-id="3066" xmlns:xlink="http://www.w3.org/1999/xlink" width="200" height="200"><defs><style type="text/css"></style></defs><path d="M451.584 567.296c103.168 0 186.624-88.832 186.624-198.4 0-109.568-83.456-198.4-186.624-198.4-102.912 0-186.624 88.832-186.624 198.4C265.216 478.464 348.672 567.296 451.584 567.296z" p-id="3067" fill="#D7290F"></path><path d="M731.904 273.408l214.272 0c5.632 0 10.24-4.608 10.24-10.24l0-51.712c0-5.632-4.608-10.24-10.24-10.24l-214.272 0c-5.632 0-10.24 4.608-10.24 10.24l0 51.712C721.664 268.8 726.272 273.408 731.904 273.408z" p-id="3068" fill="#D7290F"></path><path d="M731.904 416.256l248.32 0c5.632 0 10.24-4.608 10.24-10.24l0-51.712c0-5.632-4.608-10.24-10.24-10.24l-248.32 0c-5.632 0-10.24 4.608-10.24 10.24l0 51.712C721.664 411.648 726.272 416.256 731.904 416.256z" p-id="3069" fill="#D7290F"></path><path d="M1013.76 487.168 731.904 487.168c-5.632 0-10.24 4.608-10.24 10.24l0 51.712c0 5.632 4.608 10.24 10.24 10.24L1013.76 559.36c5.632 0 10.24-4.608 10.24-10.24l0-51.712C1024 491.776 1019.392 487.168 1013.76 487.168z" p-id="3070" fill="#D7290F"></path><path d="M454.656 608.512c-315.392 0-374.528 191.488-374.528 191.488-1.536 17.664-2.56 35.584-3.328 53.76l749.824 0c-0.768-17.92-2.048-35.84-3.328-53.76C823.04 800 770.048 608.512 454.656 608.512z" p-id="3071" fill="#D7290F"></path></svg>
