<?xml version="1.0" standalone="no"?><!DOCTYPE svg PUBLIC "-//W3C//DTD SVG 1.1//EN" "http://www.w3.org/Graphics/SVG/1.1/DTD/svg11.dtd"><svg t="1536569919708" class="icon" style="" viewBox="0 0 1024 1024" version="1.1" xmlns="http://www.w3.org/2000/svg" p-id="2449" xmlns:xlink="http://www.w3.org/1999/xlink" width="16" height="16"><defs><style type="text/css"></style></defs><path d="M897.536 555.52l-3.584-46.08c0-25.6-4.608-48.64-16.384-72.192l30.208-4.608c13.824 0 23.04-11.776 23.04-25.6v-34.816c0-13.824-9.216-25.6-23.04-25.6H824.32c-4.608 0-7.168 0-11.776 2.56l-37.376-109.568c-9.216-67.584-55.808-99.84-109.568-99.84h-351.232c-62.976 0-102.4 44.032-111.616 102.4l-39.424 109.568c-2.56-2.56-7.168-2.56-11.776-2.56h-81.408c-13.824 0-23.04 11.776-23.04 25.6v32.768c0 13.824 9.216 23.04 23.04 25.6l30.208 4.608c-11.776 23.04-16.384 46.592-16.384 72.192l-11.776 141.824V840.192c0 23.04 18.432 44.032 41.984 44.032h62.976c23.04 0 41.984-20.992 41.984-44.032v-55.808H578.56c64-119.296 180.736-205.824 318.976-228.864zM312.32 642.048c-4.608 32.768-30.208 60.416-62.976 62.976-37.376-2.56-65.024-34.816-62.976-72.192 2.56-32.768 28.16-60.416 62.976-62.976 37.376 2.56 65.024 35.328 62.976 72.192z m-53.76-271.872l7.168-37.376s23.04-60.416 34.816-86.016c2.56-4.608 9.216-9.216 13.824-9.216h349.184c7.168 0 16.384 4.608 18.432 11.776 11.776 25.6 32.768 83.968 32.768 83.968l9.216 37.376c-4.608 28.16-30.208 48.64-58.368 48.64h-349.184c-27.648-0.512-53.248-21.504-57.856-49.152z m125.952 283.648v-55.808c0-11.776 7.168-18.432 18.432-18.432h174.592c11.776 0 18.432 9.216 18.432 20.992v53.76c0 11.776-7.168 18.432-18.432 20.992h-174.592c-11.776-0.512-18.432-9.728-18.432-21.504z" fill="#D7290F" p-id="2450"></path><path d="M706.048 722.432v-43.008H885.76v-52.224L982.016 722.432h-275.968z m265.216 52.736v43.008h-179.2v52.224L696.32 775.168h274.944z" fill="#D7290F" p-id="2451"></path></svg>
