<?xml version="1.0" standalone="no"?><!DOCTYPE svg PUBLIC "-//W3C//DTD SVG 1.1//EN" "http://www.w3.org/Graphics/SVG/1.1/DTD/svg11.dtd"><svg t="1526282681831" class="icon" style="" viewBox="0 0 1024 1024" version="1.1" xmlns="http://www.w3.org/2000/svg" p-id="1583" xmlns:xlink="http://www.w3.org/1999/xlink" width="128" height="128"><defs><style type="text/css"></style></defs><path d="M512 832c-176.64 0-320-143.36-320-320s143.36-320 320-320 320 143.36 320 320-143.36 320-320 320m0-704c-211.968 0-384 172.032-384 384s172.032 384 384 384 384-172.032 384-384-172.032-384-384-384" fill="#bfbfbf" p-id="1584"></path><path d="M619.008 429.056l-151.552 165.888-61.952-69.632c-11.776-13.312-31.744-14.336-45.056-2.56-13.312 11.776-14.336 31.744-2.56 45.056l85.504 96.256c6.144 6.656 14.848 10.752 23.552 10.752 9.216 0 17.408-3.584 23.552-10.24l175.616-192c11.776-12.8 11.264-33.28-2.048-45.056-12.8-12.288-33.28-11.264-45.056 1.536" fill="#bfbfbf" p-id="1585"></path></svg>