<?xml version="1.0" standalone="no"?><!DOCTYPE svg PUBLIC "-//W3C//DTD SVG 1.1//EN" "http://www.w3.org/Graphics/SVG/1.1/DTD/svg11.dtd"><svg t="1525759750944" class="icon" style="" viewBox="0 0 1024 1024" version="1.1" xmlns="http://www.w3.org/2000/svg" p-id="4176" xmlns:xlink="http://www.w3.org/1999/xlink" width="128" height="128"><defs><style type="text/css"></style></defs><path d="M20.7 210.7h820.9v433.4H20.7z" fill="#83C6EF" p-id="4177"></path><path d="M431.2 210.7h410.5v433.4H431.2z" fill="#429BCF" p-id="4178"></path><path d="M751.7 252.4c0-1.2 0.3-2.4 0.4-3.6H113.6c0.1 1.2 0.4 2.4 0.4 3.6 0 30-24.3 54.2-54.2 54.2-0.6 0-1.1-0.1-1.6-0.2V552c0.6 0 1.1-0.2 1.6-0.2 30 0 54.2 24.3 54.2 54.2h637.7c0-29.4 23.4-53.2 52.6-54.1V306.4c-29.2-0.8-52.6-24.6-52.6-54z" fill="#FFFFFF" p-id="4179"></path><path d="M751.7 252.4c0-1.2 0.3-2.4 0.4-3.6H431.2v357.3h320.5c0-29.4 23.4-53.2 52.6-54.1V306.4c-29.2-0.8-52.6-24.6-52.6-54z" fill="#D2EDF7" p-id="4180"></path><path d="M431.2 427.4m-128.2 0a128.2 128.2 0 1 0 256.4 0 128.2 128.2 0 1 0-256.4 0Z" fill="#F9C85D" p-id="4181"></path><path d="M180.9 427.4m-48.2 0a48.2 48.2 0 1 0 96.4 0 48.2 48.2 0 1 0-96.4 0Z" fill="#F9C85D" p-id="4182"></path><path d="M681.4 427.4m-48.2 0a48.2 48.2 0 1 0 96.4 0 48.2 48.2 0 1 0-96.4 0Z" fill="#F9C85D" p-id="4183"></path><path d="M431.2 299.2v256.4c70.8 0 128.2-57.4 128.2-128.2S502 299.2 431.2 299.2z" fill="#FFB103" p-id="4184"></path><path d="M417.6 461.9h-35.2v-21h35.2v-11.4h-35.2v-21h24.8l-29.6-59.9h29.3l19 40.5c2.4 5.1 4.1 9.5 5.1 13.4 1.2-4.2 2.9-8.6 5.1-13.4l19.4-40.5h29.3l-29.9 59.9H480v21h-35.7v11.4H480v21h-35.7v44.5h-26.7v-44.5z" fill="#D3830D" p-id="4185"></path><path d="M456.6 405l-56.9 56.9h17.9v44.4h26.7v-44.4H480v-21h-35.7v-11.4H480v-21h-25.2z" fill="#BF790A" p-id="4186"></path><path d="M180.9 379.2v96.4c26.6 0 48.2-21.6 48.2-48.2s-21.5-48.2-48.2-48.2zM681.4 379.2v96.4c26.6 0 48.2-21.6 48.2-48.2s-21.5-48.2-48.2-48.2z" fill="#FFB103" p-id="4187"></path><path d="M98.3 281.7h820.9v433.4H98.3z" fill="#83C6EF" p-id="4188"></path><path d="M508.7 281.7h410.5v433.4H508.7z" fill="#429BCF" p-id="4189"></path><path d="M829.3 323.3c0-1.2 0.3-2.4 0.4-3.6H191.2c0.1 1.2 0.4 2.4 0.4 3.6 0 30-24.3 54.2-54.2 54.2-0.6 0-1.1-0.1-1.6-0.2v245.5c0.6 0 1.1-0.2 1.6-0.2 30 0 54.2 24.3 54.2 54.2h637.7c0-29.4 23.4-53.2 52.6-54.1V377.4c-29.2-0.9-52.6-24.7-52.6-54.1z" fill="#FFFFFF" p-id="4190"></path><path d="M829.3 323.3c0-1.2 0.3-2.4 0.4-3.6h-321V677h320.5c0-29.4 23.4-53.2 52.6-54.1V377.4c-29.1-0.9-52.5-24.7-52.5-54.1z" fill="#D2EDF7" p-id="4191"></path><path d="M508.7 498.3m-128.2 0a128.2 128.2 0 1 0 256.4 0 128.2 128.2 0 1 0-256.4 0Z" fill="#F9C85D" p-id="4192"></path><path d="M258.5 498.3m-48.2 0a48.2 48.2 0 1 0 96.4 0 48.2 48.2 0 1 0-96.4 0Z" fill="#F9C85D" p-id="4193"></path><path d="M759 498.3m-48.2 0a48.2 48.2 0 1 0 96.4 0 48.2 48.2 0 1 0-96.4 0Z" fill="#F9C85D" p-id="4194"></path><path d="M508.7 370.1v256.4c70.8 0 128.2-57.4 128.2-128.2s-57.4-128.2-128.2-128.2z" fill="#FFB103" p-id="4195"></path><path d="M495.2 532.8H460v-21h35.2v-11.4H460v-21h24.8l-29.6-59.9h29.3l19 40.5c2.4 5.1 4.1 9.5 5.1 13.4 1.2-4.2 2.9-8.6 5.1-13.4l19.4-40.5h29.3l-29.9 59.9h25.2v21H522v11.4h35.7v21H522v44.5h-26.7v-44.5z" fill="#D3830D" p-id="4196"></path><path d="M534.1 475.9l-56.9 56.9h18v44.4h26.7v-44.4h35.7v-21h-35.7v-11.4h35.7v-21h-25.2z" fill="#BF790A" p-id="4197"></path><path d="M258.5 450.1v96.4c26.6 0 48.2-21.6 48.2-48.2s-21.6-48.2-48.2-48.2zM759 450.1v96.4c26.6 0 48.2-21.6 48.2-48.2s-21.6-48.2-48.2-48.2z" fill="#FFB103" p-id="4198"></path><path d="M184.1 350.6H1005V784H184.1z" fill="#83C6EF" p-id="4199"></path><path d="M594.5 350.6H1005V784H594.5z" fill="#429BCF" p-id="4200"></path><path d="M915 392.2c0-1.2 0.3-2.4 0.4-3.6H277c0.1 1.2 0.4 2.4 0.4 3.6 0 30-24.3 54.2-54.2 54.2-0.6 0-1.1-0.1-1.6-0.2v245.5c0.6 0 1.1-0.2 1.6-0.2 30 0 54.2 24.3 54.2 54.2H915c0-29.4 23.4-53.2 52.6-54.1V446.3c-29.1-0.9-52.6-24.7-52.6-54.1z" fill="#FFFFFF" p-id="4201"></path><path d="M915 392.2c0-1.2 0.3-2.4 0.4-3.6H594.5v357.3H915c0-29.4 23.4-53.2 52.6-54.1V446.3c-29.1-0.9-52.6-24.7-52.6-54.1z" fill="#D2EDF7" p-id="4202"></path><path d="M594.5 567.3m-128.2 0a128.2 128.2 0 1 0 256.4 0 128.2 128.2 0 1 0-256.4 0Z" fill="#F9C85D" p-id="4203"></path><path d="M344.3 567.3m-48.2 0a48.2 48.2 0 1 0 96.4 0 48.2 48.2 0 1 0-96.4 0Z" fill="#F9C85D" p-id="4204"></path><path d="M844.8 567.3m-48.2 0a48.2 48.2 0 1 0 96.4 0 48.2 48.2 0 1 0-96.4 0Z" fill="#F9C85D" p-id="4205"></path><path d="M594.5 439.1v256.4c70.8 0 128.2-57.4 128.2-128.2s-57.4-128.2-128.2-128.2z" fill="#FFB103" p-id="4206"></path><path d="M581 601.7h-35.2v-21H581v-11.4h-35.2v-21h24.8L541 488.4h29.3l19 40.5c2.4 5.1 4.1 9.5 5.1 13.4 1.2-4.2 2.9-8.6 5.1-13.4l19.4-40.5h29.3l-29.9 59.9h25.2v21h-35.7v11.4h35.7v21h-35.7v44.5H581v-44.5z" fill="#D3830D" p-id="4207"></path><path d="M619.9 544.8L563 601.7h18v44.5h26.7v-44.5h35.7v-21h-35.7v-11.4h35.7v-21h-25.2z" fill="#BF790A" p-id="4208"></path><path d="M344.3 519v96.4c26.6 0 48.2-21.6 48.2-48.2S370.9 519 344.3 519zM844.8 519v96.4c26.6 0 48.2-21.6 48.2-48.2S871.4 519 844.8 519z" fill="#FFB103" p-id="4209"></path></svg>