<?xml version="1.0" standalone="no"?><!DOCTYPE svg PUBLIC "-//W3C//DTD SVG 1.1//EN" "http://www.w3.org/Graphics/SVG/1.1/DTD/svg11.dtd"><svg t="1525762246702" class="icon" style="" viewBox="0 0 1024 1024" version="1.1" xmlns="http://www.w3.org/2000/svg" p-id="5654" xmlns:xlink="http://www.w3.org/1999/xlink" width="128" height="128"><defs><style type="text/css"></style></defs><path d="M475.09702 413.787164c0 40.939411-33.497928 74.437339-74.437339 74.437339L136.096143 488.224504c-40.940434 0-74.437339-33.497928-74.437339-74.437339L61.658803 137.960095c0-40.939411 33.495882-74.437339 74.437339-74.437339l264.565585 0c40.939411 0 74.437339 33.496905 74.437339 74.437339L475.09702 413.787164 475.09702 413.787164z" p-id="5655" fill="#8a8a8a"></path><path d="M475.09702 886.052185c0 40.940434-33.497928 74.435293-74.437339 74.435293L136.096143 960.487477c-40.940434 0-74.437339-33.494858-74.437339-74.435293l0-275.821953c0-40.940434 33.495882-74.435293 74.437339-74.435293l264.565585 0c40.939411 0 74.437339 33.495882 74.437339 74.435293L475.09702 886.052185 475.09702 886.052185z" p-id="5656" fill="#8a8a8a"></path><path d="M958.619432 413.787164c0 40.939411-33.495882 74.437339-74.437339 74.437339L619.603205 488.224504c-40.942481 0-74.436316-33.497928-74.436316-74.437339L545.166889 137.960095c0-40.939411 33.495882-74.437339 74.436316-74.437339l264.580934 0c40.940434 0 74.436316 33.496905 74.436316 74.437339L958.619432 413.787164z" p-id="5657" fill="#8a8a8a"></path><path d="M958.623525 886.052185c0 40.940434-33.497928 74.435293-74.437339 74.435293L619.604228 960.487477c-40.941458 0-74.436316-33.494858-74.436316-74.435293l0-275.821953c0-40.940434 33.495882-74.435293 74.436316-74.435293l264.581957 0c40.940434 0 74.437339 33.495882 74.437339 74.435293L958.623525 886.052185z" p-id="5658" fill="#8a8a8a"></path></svg>