<?xml version="1.0" standalone="no"?><!DOCTYPE svg PUBLIC "-//W3C//DTD SVG 1.1//EN"
  "http://www.w3.org/Graphics/SVG/1.1/DTD/svg11.dtd"><svg t="1542254783264" class="icon" style=""
                                                          viewBox="0 0 1024 1024" version="1.1" xmlns="http://www.w3.org/2000/svg" p-id="761" xmlns:xlink="http://www.w3.org/1999/xlink" width="200" height="200"><defs><style type="text/css"></style></defs><path d="M870.746644 559.009859l-313.804489-267.098706c-23.352892-23.352892-66.774676-23.352892-90.127569 0l-313.80449 267.098706v-106.790831l317.21012-280.477966c23.352892-23.352892 60.085046-23.352892 83.437938 0L870.746644 452.097399v106.91246z" fill="#8a8a8a" p-id="762"></path><path d="M780.497446 559.009859v267.098705c0 36.732153-36.732153 43.421784-73.464307 43.421784h-106.79083v-90.127569c0-16.663262-26.758522-43.421784-43.421784-43.421784h-90.127569c-16.663262 0-43.421784 26.758522-43.421784 43.421784v90.127569h-106.79083c-36.732153 0-73.464307-9.973631-73.464307-43.421784V559.009859l267.098705-223.676922 270.382706 223.676922z" fill="#8a8a8a" p-id="763"></path></svg>
