<?xml version="1.0" standalone="no"?><!DOCTYPE svg PUBLIC "-//W3C//DTD SVG 1.1//EN" "http://www.w3.org/Graphics/SVG/1.1/DTD/svg11.dtd"><svg t="1543404643410" class="icon" style="" viewBox="0 0 1024 1024" version="1.1" xmlns="http://www.w3.org/2000/svg" p-id="1292" xmlns:xlink="http://www.w3.org/1999/xlink" width="200" height="200"><defs><style type="text/css"></style></defs><path d="M606.567051 364.280793H417.797838c-208.959734 0-260.287445 410.621689-260.287445 410.621689 0 53.881934 43.665043 108.128756 97.668607 108.128757h514.128519c53.881934 0 97.668607-54.125193 97.668606-108.128757-0.12163 0-51.449341-410.621689-260.409074-410.621689zM627.973869 679.909728c12.649483 0 22.744744 10.21689 22.744744 22.866374s-10.21689 22.866374-22.744744 22.866373h-92.560162v59.841787c0 12.649483-10.21689 22.866374-22.744744 22.866373-12.649483 0-22.744744-10.21689-22.744744-22.866373v-59.841787h-93.16831c-12.649483 0-22.744744-10.21689-22.744744-22.866373s10.21689-22.866374 22.744744-22.866374h93.16831v-28.947856h-93.16831c-12.649483 0-22.744744-10.21689-22.744744-22.744744 0-12.649483 10.21689-22.866374 22.744744-22.866374h63.004158l-64.463714-114.575127c-6.324742-10.946668-2.554223-24.812448 8.392446-31.13719 10.946668-6.324742 24.812448-2.554223 31.13719 8.270816l77.599715 137.441501h3.892148l77.599715-137.441501c6.324742-10.946668 20.190521-14.595558 31.13719-8.270816s14.595558 20.190521 8.392446 31.13719l-64.463713 114.575127H627.973869c12.649483 0 22.744744 10.21689 22.744744 22.866374s-10.21689 22.744744-22.744744 22.744744h-92.560162V679.909728H627.973869zM417.797838 327.183751h178.917211c55.341489 0 97.668607-120.048462 97.668607-120.048462 0-36.002376-3.648889-63.125787-65.071861-65.071861-61.422972-1.946074-76.261789 42.935265-120.413351 42.935265-45.246229 0-67.990973-35.272598-123.697351-42.935265-55.706378-7.662668-65.071861 29.069486-65.071861 65.071861 0 0 42.205488 120.048462 97.668606 120.048462z" fill="#D7290F" p-id="1293"></path></svg>