<?xml version="1.0" standalone="no"?><!DOCTYPE svg PUBLIC "-//W3C//DTD SVG 1.1//EN" "http://www.w3.org/Graphics/SVG/1.1/DTD/svg11.dtd"><svg t="1542864368564" class="icon" style="" viewBox="0 0 1024 1024" version="1.1" xmlns="http://www.w3.org/2000/svg" p-id="1656" xmlns:xlink="http://www.w3.org/1999/xlink" width="200" height="200"><defs><style type="text/css"></style></defs><path d="M803.850339 306.74997h-130.265353l-40.381043-61.544601c-4.500297-12.284594-22.501485-20.55541-35.880745-20.555411h-170.646396c-13.500891 0-31.502079 8.270816-35.880745 20.555411l-40.381043 61.544601H220.028032c-35.880746 0-67.382825 28.704597-67.382825 61.544602v369.632498c0 32.840005 31.502079 61.544601 67.382825 61.544601h583.822307c35.880746 0 67.382825-28.704597 67.382824-61.544601V368.294572c0-32.840005-31.380449-61.544601-67.382824-61.544602z m-291.911154 410.621689c-112.264164 0-202.148474-82.100012-202.148474-184.755434s89.884309-184.755434 202.148474-184.755434 202.148474 82.100012 202.148474 184.755434-89.884309 184.755434-202.148474 184.755434z m-134.765649-184.755434c0 67.990973 60.328305 123.210833 134.765649 123.210833s134.765649-55.09823 134.765649-123.210833-60.328305-123.210833-134.765649-123.210832-134.765649 55.09823-134.765649 123.210832z" fill="#CCCCCC" p-id="1657"></path></svg>