<?xml version="1.0" standalone="no"?><!DOCTYPE svg PUBLIC "-//W3C//DTD SVG 1.1//EN" "http://www.w3.org/Graphics/SVG/1.1/DTD/svg11.dtd"><svg t="1542863793384" class="icon" style="" viewBox="0 0 1024 1024" version="1.1" xmlns="http://www.w3.org/2000/svg" p-id="1438" xmlns:xlink="http://www.w3.org/1999/xlink" width="200" height="200"><defs><style type="text/css"></style></defs><path d="M801.782635 308.209526H672.49032l-40.137784-61.179712c-4.500297-12.284594-22.258225-20.433781-35.637487-20.433781h-169.430098c-13.379261 0-31.258819 8.149186-35.637487 20.433781l-40.137784 61.179712h-129.292315c-35.637487 0-66.896306 28.582967-66.896305 61.179713v366.956645c0 32.596745 31.258819 61.179713 66.896305 61.179713h579.808529c35.637487 0 66.896306-28.582967 66.896306-61.179713V369.389239c-0.243259-32.718375-31.380449-61.179713-67.139565-61.179713zM511.939185 715.912104c-111.534387 0-200.688918-81.491864-200.688918-183.539138s89.154531-183.539138 200.688918-183.539138 200.688918 81.491864 200.688918 183.539138-89.154531 183.539138-200.688918 183.539138z m-133.792612-183.417508c0 67.504454 59.841786 122.359425 133.792612 122.359425s133.792612-54.733341 133.792612-122.359425c0-67.504454-59.841786-122.359425-133.792612-122.359426s-133.792612 54.733341-133.792612 122.359426z" fill="#D7290F" p-id="1439"></path></svg>