<?xml version="1.0" standalone="no"?><!DOCTYPE svg PUBLIC "-//W3C//DTD SVG 1.1//EN" "http://www.w3.org/Graphics/SVG/1.1/DTD/svg11.dtd"><svg t="1530012105912" class="icon" style="" viewBox="0 0 1024 1024" version="1.1" xmlns="http://www.w3.org/2000/svg" p-id="2734" xmlns:xlink="http://www.w3.org/1999/xlink" width="16" height="16"><defs><style type="text/css"></style></defs><path d="M462.336 337.92h-99.328c-13.824 0-25.088 11.264-25.088 25.088v298.496c0 13.824 11.264 25.088 25.088 25.088h99.328c13.824 0 25.088-11.264 25.088-25.088v-298.496c-0.512-13.824-11.264-25.088-25.088-25.088z m298.496 0h-99.328c-13.824 0-25.088 11.264-25.088 25.088v298.496c0 13.824 11.264 25.088 25.088 25.088h99.328c13.824 0 25.088-11.264 25.088-25.088v-298.496c-0.512-13.824-11.776-25.088-25.088-25.088z m-497.664-99.328c-13.824 0-25.088 11.264-25.088 25.088v497.152c0 13.824 11.264 25.088 25.088 25.088s25.088-11.264 25.088-25.088v-497.152c0-13.824-11.264-25.088-25.088-25.088z m298.496 0c-13.824 0-25.088 11.264-25.088 25.088v497.152c0 13.824 11.264 25.088 25.088 25.088s25.088-11.264 25.088-25.088v-497.152c0-13.824-11.264-25.088-25.088-25.088z" fill="#8a8a8a" p-id="2735"></path></svg>