<?xml version="1.0" standalone="no"?><!DOCTYPE svg PUBLIC "-//W3C//DTD SVG 1.1//EN" "http://www.w3.org/Graphics/SVG/1.1/DTD/svg11.dtd"><svg t="1528889589801" class="icon" style="" viewBox="0 0 1024 1024" version="1.1" xmlns="http://www.w3.org/2000/svg" p-id="1282" xmlns:xlink="http://www.w3.org/1999/xlink" width="16" height="16"><defs><style type="text/css"></style></defs><path d="M565.148 917.131c-12.644 0-26.17-1.075-40.486-3.227-45.762-6.876-83.617-22.224-85.206-22.873l7.568-18.513c1.125 0.46 88.511 35.535 152.145 21.255-3.056-2.127-5.838-4.407-8.327-6.839-13.556-13.24-14.507-29.506-2.482-42.45 8.368-9.009 23.057-16.248 39.292-19.366 8.328-1.597 28.979-4.188 40.831 6.281 7.134 6.3 15.578 21.063-8.009 49.16a89.036 89.036 0 0 1-10.932 10.933c16.579 2.879 35.863 3.585 56.156 1.77 45.759-4.097 104.404-22.173 131.769-60.62l16.295 11.598c-13.808 19.398-35.798 36.104-63.595 48.313-24.751 10.869-53.343 18.003-82.686 20.63-31.378 2.814-59.838 0.263-82.153-6.921-8.527 3.668-17.912 6.417-28.126 8.23-9.912 1.759-20.622 2.639-32.054 2.639z m77.995-73.568c-12.775 0-31.274 5.001-40.13 14.534-3.277 3.527-5.605 7.294 1.804 14.531 4.803 4.691 11.44 8.703 19.498 11.952 7.866-4.283 14.919-9.825 20.841-16.88 10.613-12.642 11.82-19.781 10.088-21.311-2.148-1.897-6.595-2.826-12.101-2.826zM358.325 802.789c-4.319 0-8.632-0.075-12.932-0.226-27.937-0.983-75.083-6.017-110.928-27.078-17.626 1.315-37.779 0.615-60.428-2.105-51.691-6.213-97.19-20.77-99.102-21.387l6.138-19.034c0.452 0.146 45.808 14.642 95.618 20.596 10.549 1.261 21.827 2.201 33.141 2.468-12.692-14.458-13.547-30.837-2.046-44.531 21.048-25.063 79.787-35.829 103.034-18.884 6.426 4.683 19.55 18.475 2.676 45.319-9.25 14.717-24.075 25.201-44.335 31.418 21.511 7.599 47.778 12.205 76.936 13.23 46.429 1.64 94.473-6.018 122.385-19.493l8.695 18.012c-27.957 13.495-73.513 21.694-118.852 21.695z m-79.265-98.508c-19.443 0-45.369 7.461-55.958 20.071-2.554 3.041-7.868 9.369 3.981 20.796 3.596 3.467 7.707 6.727 12.291 9.766 24.692-2.722 46.449-10.544 57.188-27.63 8.759-13.936 4.03-17.382 2.477-18.515-4.193-3.056-11.467-4.488-19.979-4.488zM787.631 754.085c-0.898 0-1.79-0.012-2.694-0.037l0.551-19.992c49.641 1.363 92.146-45.468 92.57-45.941l14.9 13.342c-1.952 2.179-47.802 52.628-105.327 52.628zM782.7 687.996a90.11 90.11 0 0 1-3.282-0.061l0.729-19.986c0.848 0.03 1.688 0.046 2.519 0.046 53.67 0 75.512-63.36 75.729-64.011l18.965 6.35c-0.271 0.813-6.836 20.128-21.796 39.249-19.701 25.181-44.837 38.413-72.864 38.413zM637.408 642.861c-12.643 0-29.478-1.014-46.999-4.979-48.409-10.953-78.263-39.019-86.333-81.161l-1.484-7.75a1.386 1.386 0 0 1 0.983-1.594l311.677-88.545a1.388 1.388 0 0 1 1.374 0.368l3.585 3.695c0.438 0.45 45.38 45.941 106.162 54.403l32.606 4.539c1.414 0.197 1.644 2.143 0.315 2.664L660.653 641.535a1.366 1.366 0 0 1-0.334 0.085l-1.07 0.134c-0.682 0.085-9.149 1.107-21.841 1.107zM527.263 561.44a1.392 1.392 0 0 0-0.949 1.756c9.091 28.4 32.086 46.938 68.509 55.18 27.904 6.313 54.406 4.283 60.595 3.676 0.127-0.012 0.243-0.042 0.362-0.088l232.321-91.044c1.19-0.466 1.171-2.166-0.034-2.593-38.255-13.553-66.329-36.76-77.258-46.758a1.379 1.379 0 0 0-1.313-0.309l-282.233 80.18zM87.809 673.175c-3.407 1.269-6.061-3.099-3.365-5.538l25.917-23.447c0.221-0.199 22.355-20.258 44.692-43.374 40.269-41.672 45.125-55.782 45.655-59.114l0.868-5.463L482.143 416.72l-1.852 16.978c-0.311 2.852-8.524 70.473-87.194 125.433l-1.044 0.729L87.809 673.175z m131.159-122.607c-3.592 10.102-14.545 27.947-49.603 64.218a881.762 881.762 0 0 1-10.35 10.526l223.659-83.302c46.689-32.97 65.612-70.568 73.083-92.311L218.968 550.568z" fill="#8a8a8a" p-id="1283"></path><path d="M203.238 537.946l-12.091-324.515L463.388 85.267l8.519 18.095-260.281 122.534 11.599 311.306z" fill="#8a8a8a" p-id="1284"></path><path d="M823.326 480.576L463 439.962l-1.05-354.991 362.426 75.233-1.05 320.372z m-340.378-58.492L803.4 458.203l0.925-281.735-322.301-66.904 0.924 312.52zM393.809 555.628l1.53-19.942 119.334 9.155-1.53 19.942z" fill="#8a8a8a" p-id="1285"></path></svg>