<?xml version="1.0" standalone="no"?><!DOCTYPE svg PUBLIC "-//W3C//DTD SVG 1.1//EN" "http://www.w3.org/Graphics/SVG/1.1/DTD/svg11.dtd"><svg t="1542863692278" class="icon" style="" viewBox="0 0 1024 1024" version="1.1" xmlns="http://www.w3.org/2000/svg" p-id="1328" xmlns:xlink="http://www.w3.org/1999/xlink" width="200" height="200"><defs><style type="text/css"></style></defs><path d="M824.770638 314.169379H604.134458l-3.892149-10.46015c-26.028745-72.734529-76.626678-90.857346-114.210239-92.195272H200.567288c-24.690818 0-44.151562 19.460744-44.151562 42.813635V795.457893c0 23.352892 19.460744 42.813636 44.151562 42.813636h624.20335c24.690818 0 44.151562-19.460744 44.151562-42.813636V356.983015c0-23.352892-19.460744-42.813636-44.151562-42.813636zM200.567288 273.909966c0-33.813042 11.676446-28.582967 61.058083-28.582968h176.484618c75.288752 0 94.749495 16.784891 108.980164 41.59734l10.46015 26.028744H200.688918v-39.043116h-0.12163z" fill="#D7290F" p-id="1329"></path><path d="M636.366314 453.800214c-3.770519-3.162371-8.514075-4.743556-13.500891-4.378667-4.865186 0.364889-9.487112 2.675852-12.649483 6.446371l-96.938829 114.088609-96.938829-114.088609c-6.689631-7.784297-18.366077-8.635705-26.028744-2.067704s-8.635705 18.366077-2.067704 26.028744l83.924457 98.884904h-32.961635c-10.21689 0-18.487706 8.270816-18.487706 18.487706 0 10.21689 8.270816 18.487706 18.487706 18.487706h55.463119v36.975413h-55.463119c-10.21689 0-18.487706 8.270816-18.487706 18.487706s8.270816 18.487706 18.487706 18.487707h55.463119v37.097042c0 10.21689 8.270816 18.487706 18.487707 18.487707s18.487706-8.270816 18.487706-18.487707v-36.975413h55.463119c10.21689 0 18.487706-8.270816 18.487707-18.487706s-8.270816-18.487706-18.487707-18.487706h-55.463119v-36.975413h55.463119c10.21689 0 18.487706-8.270816 18.487707-18.487706 0-10.21689-8.270816-18.487706-18.487707-18.487707h-32.961634l83.924456-98.884903c3.162371-3.770519 4.743556-8.514075 4.378668-13.500891-0.12163-4.986816-2.432593-9.487112-6.081483-12.649483z" fill="#FFFFFF" p-id="1330"></path></svg>