<?xml version="1.0" standalone="no"?><!DOCTYPE svg PUBLIC "-//W3C//DTD SVG 1.1//EN" "http://www.w3.org/Graphics/SVG/1.1/DTD/svg11.dtd"><svg t="1543389202113" class="icon" style="" viewBox="0 0 1024 1024" version="1.1" xmlns="http://www.w3.org/2000/svg" p-id="1488" xmlns:xlink="http://www.w3.org/1999/xlink" width="200" height="200"><defs><style type="text/css"></style></defs><path d="M511.939185 512.060815m-356.374866 0a356.374866 356.374866 0 1 0 712.749733 0 356.374866 356.374866 0 1 0-712.749733 0Z" fill="#F1AE2C" p-id="1489"></path><path d="M736.954033 480.437107h-32.596746c-1.459556 0-3.040741 0.486519-4.257038 1.216296l-14.717187-48.895118c-4.743556-27.60993-22.379855-41.23245-44.273191-41.232451H502.816962c-24.934078 0-40.259413 18.001188-44.273192 41.110821l-14.595558 48.895118c-1.337926-0.851408-2.919112-1.337926-4.500297-1.216296H406.72954c-5.230075 0.243259-9.365483 4.743556-9.122223 9.973631v8.635705c-0.243259 5.230075 3.770519 9.730372 9.122223 9.973631l12.406224 2.310963c-4.135408 9.122224-6.203112 19.095855-6.081482 29.191116l-4.621927 57.530823c0 1.702815 0.12163 3.40563 0.364889 5.108445-0.243259 1.094667-0.243259 2.189334-0.364889 3.284v69.328899c0 9.852001 7.297779 17.879558 16.176743 17.879558h24.934078c9.000594 0 16.176743-8.027557 16.176743-17.879558v-22.258225h212.851883v22.258225c0 9.852001 7.297779 17.879558 16.176743 17.879558h24.812448c9.000594 0 16.176743-8.027557 16.176743-17.879558v-69.328899c0-1.094667-0.12163-2.189334-0.364889-3.284 0.243259-1.702815 0.243259-3.40563 0.364889-5.108445l-4.621927-57.652453c0.12163-10.095261-1.946074-20.068892-6.081482-29.312745l12.041335-2.310963c5.230075-0.243259 9.365483-4.743556 9.122224-9.973631v-8.635705c0.12163-2.554223-0.851408-4.986816-2.554223-6.811261-1.824445-1.702815-4.135408-2.797482-6.68963-2.797481m-267.341965-10.46015l10.825039-31.745338 0.121629-0.729778c1.094667-6.446371 3.52726-7.541038 7.05452-12.527854h169.065209c3.52726 5.108445 5.838223 6.446371 6.811261 12.406224l11.068298 32.475116 4.013778 17.636299c-0.851408 12.892743-15.082076 23.231263-26.758523 23.231263h-159.456467c-11.676446 0-25.785485-10.21689-26.758522-23.109633l4.013778-17.636299m7.541038 150.820762c-13.500891 0-24.569189-12.162965-24.569189-27.001781 0-14.960447 11.068298-27.123411 24.569189-27.123412s24.569189 12.162965 24.569189 27.123412c0 14.838817-11.068298 27.001782-24.569189 27.001781m137.198242-19.947262c0.243259 4.257038-3.040741 7.784297-7.297779 8.027557H538.089559c-4.257038-0.243259-7.541038-3.770519-7.297779-8.027557v-22.623114c-0.243259-4.257038 3.040741-7.784297 7.297779-8.027557h68.842381c4.257038 0.243259 7.541038 3.770519 7.297778 8.027557l0.12163 22.623114m52.544008 19.825633c-13.500891 0-24.569189-12.162965-24.569189-27.001782 0-14.960447 11.068298-27.123411 24.569189-27.123411s24.690818 12.162965 24.690818 27.123411c-0.12163 14.960447-11.189928 27.001782-24.690818 27.001782" fill="#FFFFFF" p-id="1490"></path><path d="M505.006295 374.011165c-3.284-19.704003-15.933484-29.191115-31.258819-29.191115h-97.790236c-17.757928 0-28.461337 12.771113-31.25882 29.069486l-10.460149 34.664449c-0.973037-0.608148-2.067704-0.973037-3.162371-0.973037h-23.109633c-3.770519 0.243259-6.568001 3.40563-6.446372 7.054519v6.081483c-0.12163 3.648889 2.797482 6.81126 6.446372 6.93289l8.757334 1.581185c-2.919112 6.446371-4.378667 13.500891-4.378667 20.67704l-3.162371 40.989191c0 1.216296 0.12163 2.432593 0.24326 3.64889-0.12163 0.729778-0.243259 1.581185-0.24326 2.310963v49.016748c-0.364889 6.689631 4.865186 12.284594 11.433187 12.649483h17.514669c6.689631-0.364889 11.798076-5.959853 11.433187-12.649483v-15.811854h53.881934c0.729778-4.378667 1.702815-8.635705 3.162371-12.771113l-6.446372-1.216297c-8.270816-0.729778-14.595558-7.905927-14.230668-16.176743v-9.243853c-0.12163-6.568001 3.770519-12.649483 9.852001-15.203706 0.486519-2.432593 2.554223-4.257038 4.986816-4.378667h37.340301l12.649484-41.962229h-82.343272c-8.270816 0-18.244447-7.176149-18.852595-16.420002l2.797482-12.527854 7.662668-22.379855v-0.486518c0.729778-4.500297 2.432593-5.351704 4.986815-8.878965h119.805203c2.554223 3.648889 4.135408 4.500297 4.865186 8.757335l1.459556 4.257038c3.892149-0.851408 7.905927-1.337926 12.041335-1.337926h3.892148l-2.067704-6.081483z m-147.293503 94.749495c9.608742 0 17.39304 8.635705 17.39304 19.095855 0 10.581779-7.784297 19.095855-17.39304 19.095855s-17.39304-8.514075-17.393039-19.095855 7.784297-19.095855 17.393039-19.095855z" fill="#FFFFFF" p-id="1491"></path></svg>