<?xml version="1.0" standalone="no"?><!DOCTYPE svg PUBLIC "-//W3C//DTD SVG 1.1//EN" "http://www.w3.org/Graphics/SVG/1.1/DTD/svg11.dtd"><svg t="1543389245847" class="icon" style="" viewBox="0 0 1024 1024" version="1.1" xmlns="http://www.w3.org/2000/svg" p-id="1376" xmlns:xlink="http://www.w3.org/1999/xlink" width="200" height="200"><defs><style type="text/css"></style></defs><path d="M511.939185 512.060815m-354.550421 0a354.550422 354.550422 0 1 0 709.100843 0 354.550422 354.550422 0 1 0-709.100843 0Z" fill="#4F58A3" p-id="1377"></path><path d="M709.952251 453.313695h-37.705191c-1.702815 0-3.40563 0.486519-4.986815 1.337926l-17.028151-51.6926c-5.473334-29.434375-25.907115-43.543414-51.084452-43.543413H439.569545c-28.947856 0-46.462525 18.974225-51.084452 43.543413l-17.02815 51.81423c-1.581185-0.973037-3.40563-1.459556-5.230075-1.459556h-37.705191c-2.797482 0-5.473334 1.094667-7.419408 3.162371s-3.040741 4.621927-3.040742 7.419409v9.243853c0 5.838223 4.621927 10.581779 10.46015 10.581779l14.230669 2.432593c-4.500297 8.878964-7.05452 19.095855-7.05452 30.89393l-5.230074 60.936454c0 1.824445 0.12163 3.648889 0.364888 5.351704-0.243259 1.094667-0.364889 2.310963-0.364888 3.40563v73.342677c0 4.986816 1.946074 9.730372 5.473334 13.379262 3.52726 3.52726 8.270816 5.594964 13.257631 5.594963h28.582967c4.986816 0 9.730372-2.067704 13.257632-5.594963 3.52726-3.52726 5.473334-8.392446 5.473334-13.379262v-23.596151h245.813517v23.596151c0 4.986816 1.946074 9.730372 5.473334 13.379262s8.270816 5.594964 13.257632 5.594963h28.582967c4.986816 0 9.730372-2.067704 13.257631-5.594963 3.52726-3.52726 5.473334-8.392446 5.473334-13.379262v-73.342677c0-1.094667-0.12163-2.310963-0.364888-3.40563 0.243259-1.824445 0.364889-3.648889 0.364888-5.351704l-5.351704-60.936454c0-11.919705-2.554223-22.014966-7.05452-31.01556l13.98741-2.432593c5.838223 0 10.46015-4.743556 10.46015-10.581779v-9.243853c0-2.797482-1.094667-5.473334-3.040742-7.419409-1.946074-1.946074-4.621927-3.040741-7.419408-3.040741z m-308.939304-10.825038l12.527854-33.569783 0.121629-0.729778c1.216296-6.81126 4.013778-8.027557 8.149187-13.257631H617.14883c4.135408 5.351704 6.689631 6.81126 7.905927 13.136001l12.649483 34.421191 4.621927 18.730965c-1.094667 13.62252-17.27141 24.447559-30.89393 24.447559h-184.147286c-13.62252 0-29.799264-10.825039-30.893931-24.447559l4.621927-18.730965z m8.757335 159.456467c-15.690224 0-28.339708-12.771113-28.339708-28.582967s12.649483-28.582967 28.339708-28.582967 28.339708 12.771113 28.339707 28.582967-12.649483 28.582967-28.339707 28.582967z m158.48343-21.163558c0 2.310963-0.851408 4.378667-2.432593 5.959852-1.581185 1.581185-3.770519 2.554223-5.959853 2.554223h-79.545789c-4.621927 0-8.392446-3.892149-8.392446-8.514075v-23.961041c0-2.189334 0.851408-4.378667 2.432593-5.959853s3.770519-2.432593 5.959853-2.554222h79.545789c4.621927 0 8.392446 3.770519 8.392446 8.514075v23.961041z m60.693194 21.163558c-15.690224 0-28.339708-12.771113-28.339708-28.582967s12.649483-28.582967 28.339708-28.582967 28.339708 12.771113 28.339708 28.582967c0 15.690224-12.649483 28.582967-28.339708 28.582967z" fill="#FFFFFF" p-id="1378"></path></svg>