<?xml version="1.0" standalone="no"?><!DOCTYPE svg PUBLIC "-//W3C//DTD SVG 1.1//EN" "http://www.w3.org/Graphics/SVG/1.1/DTD/svg11.dtd"><svg t="1543389224316" class="icon" style="" viewBox="0 0 1024 1024" version="1.1" xmlns="http://www.w3.org/2000/svg" p-id="1262" xmlns:xlink="http://www.w3.org/1999/xlink" width="200" height="200"><defs><style type="text/css"></style></defs><path d="M511.939185 503.30348m-358.199311 0a358.199311 358.199311 0 1 0 716.398622 0 358.199311 358.199311 0 1 0-716.398622 0Z" fill="#D7290F" p-id="1263"></path><path d="M643.420834 294.830265c-0.608148 0-0.973037 0-1.581186 0.608148-15.325336 0-20.190521 4.257038-39.286376 38.313339-19.217484 33.448153-72.126381 158.240171-56.192897 188.404324 15.325336 30.89393 73.099418 18.487706 73.099418 50.962822V703.019361c0 13.379261 10.703409 24.08267 24.08267 24.08267s24.08267-10.703409 24.082671-24.08267V318.669676c-0.12163-13.014372-11.554816-23.839411-24.2043-23.839411" fill="#FFFFFF" p-id="1264"></path><path d="M450.029695 294.492134V350.320143c0 4.257038-3.284 7.419408-7.419409 7.419408s-7.419408-3.284-7.419408-7.419408v-55.828009h-14.960447V350.320143c0 4.257038-3.284 7.419408-7.419408 7.419408-4.257038 0-7.419408-3.284-7.419409-7.419408v-55.828009h-14.352298V350.320143c0 4.257038-3.284 7.419408-7.419409 7.419408-4.257038 0-7.419408-3.284-7.419408-7.419408v-55.828009h-18.487707l-13.62252 150.820763c0 29.191115 18.487706 54.246823 44.516451 63.733935v193.634399c0 13.379261 10.703409 24.08267 24.08267 24.08267s24.08267-10.703409 24.08267-24.08267V509.046832c25.298967-10.095261 43.543414-34.42119 43.543414-63.004157l-11.068298-151.428911h-19.217484z" fill="#FFFFFF" p-id="1265"></path></svg>