<?xml version="1.0" standalone="no"?><!DOCTYPE svg PUBLIC "-//W3C//DTD SVG 1.1//EN" "http://www.w3.org/Graphics/SVG/1.1/DTD/svg11.dtd"><svg t="1527725509187" class="icon" style="" viewBox="0 0 1215 1024" version="1.1" xmlns="http://www.w3.org/2000/svg" p-id="1268" xmlns:xlink="http://www.w3.org/1999/xlink" width="18.984375" height="16"><defs><style type="text/css"></style></defs><path d="M1140.444361 203.065654c-31.519015-31.455017-68.765851-45.75857-111.740508-45.75857H891.172151l-31.519015-82.941408c-8.607731-20.031374-22.911284-37.182838-42.974657-51.486391C796.615106 8.575732 773.671823 0 753.60845 0h-315.190151c-22.911284 0-42.974657 8.575732-63.03803 22.879285-20.063373 14.303553-34.398925 31.455017-42.974657 51.486391L298.006687 157.307084H157.595075c-42.974657 0-80.221493 14.303553-111.740508 45.75857C14.335552 234.55267 0 271.735508 0 314.614168v552.046749c0 42.910659 14.335552 80.093497 45.854567 111.548514 31.519015 31.455017 68.765851 45.75857 111.740508 45.75857h871.108778c42.974657 0 80.221493-14.303553 111.740508-45.75857 31.519015-31.455017 45.854567-68.637855 45.854567-111.548514V314.646167c0-42.910659-14.335552-80.093497-45.854567-111.580513zM604.397113 832.32599c-149.43533 0-271.9915-122.55617-271.991501-271.9915s122.55617-271.9915 271.991501-271.991501 271.9915 122.55617 271.9915 271.991501-122.55617 271.9915-271.9915 271.9915z" fill="#D7290F" p-id="1269"></path><path d="M604.077123 380.084122c-107.004656 0-191.994 84.989344-191.994001 191.994001s84.989344 191.994 191.994001 191.994 191.994-84.989344 191.994-191.994-84.989344-191.994-191.994-191.994001z" fill="#D7290F" p-id="1270"></path></svg>
