<?xml version="1.0" standalone="no"?><!DOCTYPE svg PUBLIC "-//W3C//DTD SVG 1.1//EN" "http://www.w3.org/Graphics/SVG/1.1/DTD/svg11.dtd"><svg t="1530012182580" class="icon" style="" viewBox="0 0 1024 1024" version="1.1" xmlns="http://www.w3.org/2000/svg" p-id="2995" xmlns:xlink="http://www.w3.org/1999/xlink" width="16" height="16"><defs><style type="text/css"></style></defs><path d="M683.008 438.784h-146.944c-13.312 0-24.576-10.752-24.576-24.576 0-13.312 10.752-24.576 24.576-24.576h146.944c13.312 0 24.576 10.752 24.576 24.576 0 13.312-10.752 24.576-24.576 24.576m0 97.792h-97.792c-13.312 0-24.576-10.752-24.576-24.576s10.752-24.576 24.576-24.576h97.792c13.312 0 24.576 10.752 24.576 24.576s-10.752 24.576-24.576 24.576m0 97.792h-97.792c-13.312 0-24.576-10.752-24.576-24.576 0-13.312 10.752-24.576 24.576-24.576h97.792c13.312 0 24.576 10.752 24.576 24.576 0 13.312-10.752 24.576-24.576 24.576m-389.632-13.312l-1.536-3.584v-42.496c0-15.872 10.24-31.232 24.576-36.864 1.024-0.512 15.872-6.656 36.352-12.8-6.144-10.24-9.216-22.016-9.728-34.304v-32.256c0-30.208 19.456-55.296 46.592-64.512 7.168-2.56 14.336-4.096 22.016-4.096 37.888 0 68.608 30.72 68.608 68.608v32.256c0 12.288-3.584 23.04-8.704 32.768 13.824 4.096 27.648 8.704 40.96 14.336 9.728 4.096 17.408 12.8 21.504 23.04 1.536 4.096 2.56 8.704 2.56 13.312v38.4c-1.536 17.92-16.384 32.256-34.816 32.256h-175.104c-15.36 0-28.672-9.728-33.28-24.064m463.36-353.792h-488.96c-27.136 0-48.64 22.016-49.152 48.64v391.68c0 26.624 22.016 48.64 49.152 48.64h488.96c27.136 0 48.64-22.016 49.152-48.64v-391.68c-0.512-26.624-22.528-48.64-49.152-48.64" fill="#8a8a8a" p-id="2996"></path></svg>