<?xml version="1.0" standalone="no"?><!DOCTYPE svg PUBLIC "-//W3C//DTD SVG 1.1//EN" "http://www.w3.org/Graphics/SVG/1.1/DTD/svg11.dtd"><svg t="1530012360130" class="icon" style="" viewBox="0 0 1024 1024" version="1.1" xmlns="http://www.w3.org/2000/svg" p-id="3210" xmlns:xlink="http://www.w3.org/1999/xlink" width="16" height="16"><defs><style type="text/css"></style></defs><path d="M622.08 480.256l-125.44 136.704c-4.096 4.608-10.24 7.168-16.896 7.168-6.656 0-12.8-2.56-16.896-7.68l-60.928-68.608c-8.192-9.216-7.68-24.064 2.048-32.256s24.064-7.68 32.256 2.048l44.032 49.664 108.032-118.272c8.704-9.216 23.04-9.216 32.256-0.512 8.704 8.704 9.216 22.528 1.536 31.744m95.232-222.72h-45.568v68.096c0 25.088-20.48 45.568-45.568 46.08h-228.352c-25.088 0-45.568-20.48-45.568-46.08v-45.056-23.04h-45.568c-25.088 0-45.568 20.48-45.568 45.568v411.136c0 25.088 20.48 45.568 45.568 45.568h411.136c25.088 0 45.568-20.48 45.568-45.568v-411.136c-0.512-25.088-20.992-45.568-46.08-45.568" fill="#8a8a8a" p-id="3211"></path><path d="M623.616 249.344c-5.632-9.216-15.36-15.36-26.112-15.36h-168.448c-11.264 0-20.992 6.144-26.112 15.36-2.56 4.608-4.096 10.24-4.096 15.36v30.208c0 16.896 13.824 30.72 30.72 30.72h168.448c16.896 0 30.72-13.824 30.72-30.72v-30.208c-1.024-5.632-2.56-11.264-5.12-15.36" fill="#8a8a8a" p-id="3212"></path></svg>