<?xml version="1.0" standalone="no"?><!DOCTYPE svg PUBLIC "-//W3C//DTD SVG 1.1//EN" "http://www.w3.org/Graphics/SVG/1.1/DTD/svg11.dtd"><svg t="1542694818767" class="icon" style="" viewBox="0 0 1024 1024" version="1.1" xmlns="http://www.w3.org/2000/svg" p-id="1439" xmlns:xlink="http://www.w3.org/1999/xlink" width="200" height="200"><defs><style type="text/css"></style></defs><path d="M511.939185 512.060815m-358.077681 0a358.077681 358.077681 0 1 0 716.155363 0 358.077681 358.077681 0 1 0-716.155363 0Z" fill="#4F58A3" p-id="1440"></path><path d="M342.144198 603.52631c0 18.122817 15.325336 32.840005 34.29956 32.840004s34.299561-14.717187 34.299561-32.840004-15.325336-32.840005-34.299561-32.840005-34.299561 14.717187-34.29956 32.840005z m288.870412 32.840004c18.974225 0 34.299561-14.717187 34.29956-32.840004s-15.325336-32.840005-34.29956-32.840005-34.299561 14.717187-34.299561 32.840005c0.12163 18.122817 15.446965 32.840005 34.299561 32.840004z m-30.285782-140.847131h34.177931c1.094667 0 2.189334 0.243259 3.40563 0.486518 0.973037-0.12163 1.824445-0.486519 2.675852-0.486518h57.165934c18.974225 0 45.732747 28.947856 45.732747 46.949044v7.662667c0 11.919705-13.74415 11.068298-31.137189 10.946669 7.176149 12.649483 11.189928 27.001782 11.189927 42.327117 0 49.260007-41.597339 89.276161-92.92505 89.276161-35.394227 0-66.044898-18.974225-81.856753-46.949044h-90.978976c-15.690224 27.974819-46.584155 46.949044-81.978382 46.949044-51.449341 0-93.04668-40.016154-93.04668-89.276161 0-30.042523 15.568595-56.436156 39.286376-72.6129-0.486519-2.310963-0.851408-4.621927-0.851408-7.176149l21.528448-34.42119c-18.244447-9.243853-30.285782-25.907115-30.285782-40.867561v-11.798076c0-19.460744 16.176743-35.272598 36.124005-35.272598h74.315714c15.203706-15.811854 40.989191-33.934672 53.881934-26.880152 16.420002 9.122224 10.825039 33.448153 4.257038 48.651859l-12.041335 29.069486v7.784297c0 16.055113-11.068298 29.434375-26.150375 33.691412-16.784891 59.476897 47.070673 90.614087 88.546384 46.462526 1.459556-2.432593 2.675852-4.865186 3.770519-7.419409 0.243259 0.12163 0.243259 0.243259 0.243259 0.243259 14.717187-31.502079 50.841193-36.610524 64.950232-37.340301z m116.399572-28.339708h-132.941204c-20.068892 0-36.245635-14.960447-36.245635-33.326523v-55.463119c0-18.366077 16.176743-33.326523 36.245635-33.326524h132.941204c20.068892 0 36.245635 14.838817 36.245635 33.326524v55.463119c0 18.366077-16.298373 33.326523-36.245635 33.326523z" fill="#FFFFFF" p-id="1441"></path></svg>