<?xml version="1.0" standalone="no"?><!DOCTYPE svg PUBLIC "-//W3C//DTD SVG 1.1//EN" "http://www.w3.org/Graphics/SVG/1.1/DTD/svg11.dtd"><svg t="1542864123852" class="icon" style="" viewBox="0 0 1024 1024" version="1.1" xmlns="http://www.w3.org/2000/svg" p-id="1547" xmlns:xlink="http://www.w3.org/1999/xlink" width="200" height="200"><defs><style type="text/css"></style></defs><path d="M833.771232 243.016035h-643.664093c-20.312151 0-36.853783 17.27141-36.853783 38.434969v461.219622c0 21.163559 16.541632 38.434969 36.853783 38.434968h643.664093c20.312151 0 36.853783-17.27141 36.853783-38.434968V281.451004c0-21.163559-16.541632-38.434969-36.853783-38.434969z m-68.599121 374.740943h-192.661362c-8.757335 0-15.690224-8.027557-15.690224-17.879558s7.05452-17.879558 15.690224-17.879558h192.782991c8.635705 0 15.690224 8.027557 15.690225 17.879558 0 9.730372-7.05452 17.879558-15.811854 17.879558z m0-103.50683h-192.661362c-8.757335 0-15.690224-7.541038-15.690224-16.90652s7.05452-16.906521 15.690224-16.906521h192.782991c8.635705 0 15.690224 7.541038 15.690225 16.906521s-7.05452 16.906521-15.811854 16.90652z m0-99.97957h-192.661362c-8.757335 0-15.690224-8.027557-15.690224-17.879558s7.05452-17.879558 15.690224-17.879558h192.782991c8.635705 0 15.690224 8.027557 15.690225 17.879558s-7.05452 17.879558-15.811854 17.879558zM355.03694 377.538425c37.097042 0 67.261195 30.164153 67.261195 67.261195s-30.164153 67.261195-67.261195 67.261195-67.261195-30.164153-67.261195-67.261195 30.042523-67.261195 67.261195-67.261195z m-37.82682 156.902245c16.784891 5.230075 65.193491 5.716593 75.288752 0 46.340896 15.325336 83.559568 59.598527 83.559567 110.804609l-0.121629 1.824444h-232.920775l-0.121629-1.702815c0-52.422378 26.272004-96.57394 74.315714-110.926238z" fill="#D7290F" p-id="1548"></path></svg>