<?xml version="1.0" standalone="no"?><!DOCTYPE svg PUBLIC "-//W3C//DTD SVG 1.1//EN" "http://www.w3.org/Graphics/SVG/1.1/DTD/svg11.dtd"><svg t="1530011932543" class="icon" style="" viewBox="0 0 1024 1024" version="1.1" xmlns="http://www.w3.org/2000/svg" p-id="2013" xmlns:xlink="http://www.w3.org/1999/xlink" width="16" height="16"><defs><style type="text/css"></style></defs><path d="M435.712 340.992h156.672s54.272-77.824 57.856-86.016c3.584-8.192 9.216-26.624-11.776-30.72-20.992-4.096-34.816-8.704-46.592-6.656-11.776 2.048-29.184 15.872-74.24 17.92-44.032 2.048-51.2-17.92-74.24-17.408-15.36 0.512-46.08 2.56-54.784 5.632-8.704 3.072-23.04 13.312-9.216 34.816 13.824 21.504 56.32 82.432 56.32 82.432z m350.208 300.032c-34.304-86.016-88.064-163.328-157.184-225.28v-1.024c-21.504-18.944-35.84-28.672-35.84-28.672h-162.304s-14.336 9.728-35.84 28.672v1.024c-69.12 61.952-122.88 139.264-157.184 225.28-15.872 39.936-4.608 93.184 17.408 120.832 39.936 49.152 90.624 44.032 95.744 44.032h321.536c5.12 0 55.808 5.632 95.744-44.032 23.04-27.648 33.792-80.896 17.92-120.832z m-206.848 47.616c-11.776 13.312-28.672 20.992-51.2 23.552v33.792h-28.672v-33.792c-37.376-3.584-60.416-25.6-69.12-65.024l44.032-11.264c4.096 24.576 17.408 37.376 40.448 37.376 10.752 0 18.432-2.56 23.552-8.192 5.12-5.12 7.68-12.288 7.68-19.456 0-7.68-2.56-13.824-7.68-17.408-5.12-4.096-16.384-9.216-33.792-15.36-15.872-5.632-27.648-10.752-36.864-16.384-8.704-5.632-16.384-13.312-21.504-22.016-5.632-10.24-8.704-21.504-8.192-33.28 0-16.384 5.12-31.744 14.848-45.056 9.728-13.312 25.088-21.504 46.592-24.576V445.44h28.672v26.112c31.744 3.584 52.224 22.016 61.952 53.76l-39.424 15.872c-7.68-22.016-19.456-33.28-35.328-33.28-7.168-0.512-14.336 2.56-19.456 7.168-4.608 4.608-7.68 11.264-7.168 17.92 0 7.168 2.56 12.8 7.168 16.384 4.608 3.584 14.848 8.704 30.208 14.336 16.896 6.144 30.208 12.288 39.936 17.408 9.728 5.632 17.408 13.312 23.04 22.528 5.632 9.728 8.704 20.992 8.704 33.792-1.024 21.504-6.656 37.888-18.432 51.2z" fill="#8a8a8a" p-id="2014"></path></svg>