<?xml version="1.0" standalone="no"?><!DOCTYPE svg PUBLIC "-//W3C//DTD SVG 1.1//EN" "http://www.w3.org/Graphics/SVG/1.1/DTD/svg11.dtd"><svg t="1527587570097" class="icon" style="" viewBox="0 0 1024 1024" version="1.1" xmlns="http://www.w3.org/2000/svg" p-id="4269" xmlns:xlink="http://www.w3.org/1999/xlink" width="128" height="128"><defs><style type="text/css"></style></defs><path d="M512.051165 136.099452h-0.112563c-155.654795 0.061398-281.817964 126.255266-281.817964 281.930528 0 235.288324 194.755246 469.696606 281.817964 469.870568h0.112563c87.062717-0.194428 281.817964-234.592477 281.817964-469.870568 0-155.675261-126.163169-281.869129-281.817964-281.930528zM648.795299 546.95607c-22.512691-17.488268-55.995203-28.325059-94.983091-32.745733V488.116081C584.327138 464.948475 595.583483 416.1471 595.583483 373.935804c0-57.673422-37.401767-81.219651-83.532318-81.219651s-83.532318 23.535996-83.532318 81.219651c0 42.221529 11.194947 91.012671 41.771276 114.139345v26.17612c-38.987888 4.379742-72.460167 15.216533-94.983092 32.745733A187.950274 187.950274 0 1 1 648.795299 546.95607z" fill="#D7290F" p-id="4270"></path></svg>
