<?xml version="1.0" standalone="no"?><!DOCTYPE svg PUBLIC "-//W3C//DTD SVG 1.1//EN" "http://www.w3.org/Graphics/SVG/1.1/DTD/svg11.dtd"><svg t="1543389265465" class="icon" style="" viewBox="0 0 1024 1024" version="1.1" xmlns="http://www.w3.org/2000/svg" p-id="1602" xmlns:xlink="http://www.w3.org/1999/xlink" width="200" height="200"><defs><style type="text/css"></style></defs><path d="M511.939185 512.060815m-358.077681 0a358.077681 358.077681 0 1 0 716.155363 0 358.077681 358.077681 0 1 0-716.155363 0Z" fill="#FE6B00" p-id="1603"></path><path d="M442.610286 559.739637c3.892149-1.459556 8.757335-2.797482 14.352299-6.446372 8.270816-5.230075 14.595558-15.933484-0.729778-29.069485-50.841193-73.342677-32.353486-121.994536-24.569189-140.360613-6.446371-2.554223-13.74415-4.013778-22.136596-4.013779h-2.675852c-48.651859 0-61.544601 44.273192-62.517639 69.08564-0.608148 58.50386 35.150968 81.856753 35.150968 81.856752s2.189334 3.040741 2.189334 12.041336c0 2.067704-1.337926 8.149186-3.648889 9.973631-19.947262 16.176743-86.600309 33.083264-91.222236 67.869343-2.432593 10.095261-0.973037 20.55541-0.486518 30.285782 10.946668 8.392446 45.854377 15.446965 45.854377 15.446965s2.919112-8.878964 5.838223-23.352892c4.257038-21.406818 33.448153-56.314527 104.601496-83.316308z m308.696045 60.814823c-4.743556-34.786079-73.221048-51.6926-93.654828-67.869343-2.310963-1.824445-3.648889-7.905927-3.64889-9.973631 0-8.878964 2.310963-12.041335 2.310963-12.041335s36.732153-23.231263 36.002376-81.735123c-0.973037-24.812448-16.420002-69.08564-64.098824-69.08564h-2.675852c-10.21689 0-18.852595 1.946074-26.272004 5.108445 10.21689 34.177931 22.379855 96.817199-29.069486 138.779428-20.190521 30.164153 47.070673 47.800451 36.610524 43.178525 60.936453 27.366671 77.356456 48.4086 81.856753 70.180306 3.770519 18.122817 5.838223 29.191115 5.838223 29.191116s45.611118-6.93289 57.409193-15.811855c0.486519-9.487112 1.946074-19.947262-0.608148-29.920893z m-198.621214-66.896306c-2.919112-2.310963-4.500297-9.852001-4.500297-12.406224 0-11.068298 2.797482-14.960447 2.797482-14.960446s45.002969-24.325929 44.151562-101.560756c-1.216296-30.772301-20.190521-85.748901-78.694382-85.748901h-3.284c-61.179713 0-77.356456 54.976601-78.694382 85.748901-0.851408 72.734529 44.151562 101.560755 44.151562 101.560756s5.473334 6.203112 5.473334 17.271409c0 2.554223-4.378667 7.662668-7.176149 9.973632-25.055707 20.068892-115.426535 40.381043-121.386388 83.559567-4.500297 18.366077-31.380449 47.435562 57.895712 59.233638 24.569189 3.284 58.017342 5.108445 103.020311 5.108446 206.89203 0 164.200024-40.137784 158.361801-63.612306-5.959853-43.178525-97.060458-64.098824-122.116166-84.167716z" fill="#FFFFFF" p-id="1604"></path></svg>