<?xml version="1.0" standalone="no"?><!DOCTYPE svg PUBLIC "-//W3C//DTD SVG 1.1//EN" "http://www.w3.org/Graphics/SVG/1.1/DTD/svg11.dtd"><svg t="1530675100521" class="icon" style="" viewBox="0 0 1024 1024" version="1.1" xmlns="http://www.w3.org/2000/svg" p-id="4954" xmlns:xlink="http://www.w3.org/1999/xlink" width="16" height="16"><defs><style type="text/css"></style></defs><path d="M983.120964 320.636624c-25.593911-63.11548-63.180971-119.726825-111.719454-168.266331-48.539506-48.539506-105.150852-86.125543-168.265308-111.719454-60.943001-24.712845-125.325333-37.243229-191.363376-37.243229S381.351428 15.936971 320.40945 40.651862c-63.11548 25.593911-119.726825 63.180971-168.265308 111.718431S66.018599 257.522168 40.425711 320.635601c-24.712845 60.943001-37.242206 125.326357-37.243229 191.363376 0 66.038042 12.529361 130.421398 37.243229 191.363375 25.593911 63.11548 63.181995 119.728872 111.718431 168.265308 48.536436 48.536436 105.149828 86.12452 168.265308 111.718431 60.943001 24.712845 125.326357 37.242206 191.363376 37.243229 66.040089 0.001023 130.422422-12.529361 191.364399-37.242205 63.114456-25.595958 119.725802-63.180971 168.264285-111.719455s86.125543-105.151875 111.719454-168.264284c24.710798-60.944024 37.242206-125.326357 37.242206-191.364399 0.001023-66.037019-12.528338-130.421398-37.242206-191.362353zM752.702084 752.944608c-13.310144 13.242606-34.905998 13.243629-48.214095 0l-192.756095-192.770422-192.72028 192.703907c-13.310144 13.308097-34.904974 13.308097-48.182372 0.001023-13.310144-13.311167-13.30912-34.873252 0-48.182372L463.551568 511.988744 270.830265 319.252091c-13.310144-13.311167-13.310144-34.871205 0.001023-48.182372s34.871205-13.310144 48.181349 0L511.7585 463.785905l192.732559-192.716186c13.307074-13.30912 34.870182-13.310144 48.181349 0 13.308097 13.243629 13.308097 34.870182 0 48.181349l-192.729489 192.713116 192.758142 192.73563c13.276375 13.307074 13.276375 34.935674 0.001023 48.244794z" fill="#bfbfbf" p-id="4955"></path></svg>