<?xml version="1.0" standalone="no"?><!DOCTYPE svg PUBLIC "-//W3C//DTD SVG 1.1//EN" "http://www.w3.org/Graphics/SVG/1.1/DTD/svg11.dtd"><svg t="1543389256160" class="icon" style="" viewBox="0 0 1024 1024" version="1.1" xmlns="http://www.w3.org/2000/svg" p-id="1489" xmlns:xlink="http://www.w3.org/1999/xlink" width="200" height="200"><defs><style type="text/css"></style></defs><path d="M511.939185 512.060815m-356.861385 0a356.861385 356.861385 0 1 0 713.72277 0 356.861385 356.861385 0 1 0-713.72277 0Z" fill="#209E85" p-id="1490"></path><path d="M690.126618 687.207507V459.030289c0-5.473334-4.378667-9.973631-9.852001-9.973631h-59.233638c-5.473334 0-9.852001 4.500297-9.852002 9.973631v228.298847h-19.704003V349.806865c0-10.946668-8.757335-19.825632-19.704002-19.825632h-217.108921c-10.946668 0-19.704003 8.878964-19.704003 19.825632v337.400642h-19.704002v19.825632h394.566575v-19.825632H690.126618z m-167.605654-79.30253h-118.345646v-19.825633h118.345646v19.825633z m0-59.598527h-118.345646v-19.825633h118.345646v19.825633z m0-59.598527h-118.345646v-19.825633h118.345646v19.825633z m0-59.476898h-118.345646V409.405393h118.345646v19.825632z" fill="#FFFFFF" p-id="1491"></path></svg>