<?xml version="1.0" standalone="no"?><!DOCTYPE svg PUBLIC "-//W3C//DTD SVG 1.1//EN" "http://www.w3.org/Graphics/SVG/1.1/DTD/svg11.dtd"><svg t="1542947863343" class="icon" style="" viewBox="0 0 1024 1024" version="1.1" xmlns="http://www.w3.org/2000/svg" p-id="8952" xmlns:xlink="http://www.w3.org/1999/xlink" width="200" height="200"><defs><style type="text/css"></style></defs><path d="M927.960825 170.09498l-81.808496-81.583087c-22.59655-22.526039-59.210923-22.526039-81.807473 0l-122.727071 163.166173c-18.738528 27.620058-22.59655 59.042721 0 81.583087l50.079587 49.92404c-37.115813 49.743938-81.697974 103.998609-131.860453 154.033166-56.727257 56.559157-119.866813 108.023272-176.608396 150.216233l-48.384923-48.244794c-22.582223-22.539342-54.104415-18.709107-81.808496 0L89.417089 761.551636c-27.426753 18.931165-22.59655 59.07035 0 81.610716l81.808496 81.554434c45.178773 45.080731 103.947609 30.645974 163.616992 0 0 0 180.592291-101.097536 335.200749-255.268848 145.434142-145.027048 257.917499-336.186785 257.917499-336.186785C951.418011 268.944312 973.153925 215.148082 927.960825 170.09498zM890.140948 292.470121c-48.302032 91.784426-155.622596 233.118362-245.454142 326.34565C541.129093 730.794122 297.008374 883.940081 297.008374 883.940081c-18.849049 9.882068-71.148279 10.632151-85.528366-3.691065l-52.063859-51.936883c-10.743109-17.960047-15.573312-38.779212 0-51.909254l104.126695-77.864392c17.628195-11.908214 37.683771-14.350846 52.063859 0l64.139367 63.956637c15.115875-10.603499 256.113336-168.551834 390.1658-385.957329l-65.70816-65.524342c-14.380088-14.337543-11.936333-34.338063 0-51.922557l78.089649-103.83181c14.379065-19.166525 37.670468-14.337543 52.049532 0l52.077163 51.922557C906.824593 226.334865 900.910664 270.984784 890.140948 292.470121z" p-id="8953" fill="#D7290F"></path></svg>