<?xml version="1.0" standalone="no"?><!DOCTYPE svg PUBLIC "-//W3C//DTD SVG 1.1//EN" "http://www.w3.org/Graphics/SVG/1.1/DTD/svg11.dtd"><svg t="1542251933872" class="icon" style="" viewBox="0 0 1024 1024" version="1.1" xmlns="http://www.w3.org/2000/svg" p-id="670" xmlns:xlink="http://www.w3.org/1999/xlink" width="200" height="200"><defs><style type="text/css"></style></defs><path d="M826.838342 417.554579C799.83656 264.666112 669.449578 152.158689 511.939185 152.158689c-157.510393 0-287.897375 117.007721-314.899156 265.39589-27.001782 22.501485-45.002969 63.004157-45.00297 103.50683 0 54.003563 31.502079 117.007721 81.005345 117.00772 45.002969 0 45.002969-49.503266 45.00297-117.00772 0-63.004157 0-112.507424-31.502079-117.007721 27.001782-121.508018 135.008908-211.392327 265.39589-211.392327 130.508611 0 238.394109 90.005939 265.39589 206.89203-31.502079 9.000594-31.502079 54.003563-31.502078 117.007721 0 44.638081 0 75.8969 8.757334 98.398384 0.12163 0.243259 0.243259 0.364889 0.24326 0.608149-25.542226 120.77824-99.006533 170.889654-170.889655 188.890842-13.500891-18.001188-40.502673-31.502079-72.004751-31.502079-45.002969 0-81.005345 22.501485-81.005345 49.503267 0 27.001782 36.002376 49.503266 81.005345 49.503266 45.002969 0 81.005345-22.501485 81.005345-49.503266 72.004751-18.001188 158.969949-80.032308 175.389952-193.39114 0 0.243259 0.243259 0.243259 0.486518 0.364889 4.621927 4.135408 13.379261 4.135408 22.014966 4.135408 49.503266 0 81.005345-63.004157 81.005345-117.00772 0-36.002376-18.001188-76.505048-45.002969-99.006533z" fill="#FFFFFF" p-id="671"></path></svg>