<?xml version="1.0" standalone="no"?><!DOCTYPE svg PUBLIC "-//W3C//DTD SVG 1.1//EN" "http://www.w3.org/Graphics/SVG/1.1/DTD/svg11.dtd"><svg t="1529129511026" class="icon" style="" viewBox="0 0 1024 1024" version="1.1" xmlns="http://www.w3.org/2000/svg" p-id="2279" xmlns:xlink="http://www.w3.org/1999/xlink" width="200" height="200"><defs><style type="text/css"></style></defs><path d="M155.0778 530.305262H320.250861c1.216296 57.895712 8.149186 112.142535 19.825633 160.429505-54.368452 14.717187-88.789642 33.813042-106.669201 45.732747C187.552916 679.423209 158.72669 608.148236 155.0778 530.305262zM232.920774 290.208338c17.757928 11.919705 52.179119 31.258819 106.91246 45.976007-11.433187 47.678822-18.366077 101.074237-19.582373 157.996912H155.0778c4.013778-76.869937 32.475116-147.415132 77.842974-203.972919zM868.192422 494.302886H703.019361c-1.216296-56.922675-8.149186-110.31809-19.582373-157.996911 54.611712-14.717187 89.154531-33.813042 107.034089-45.854377 45.246229 56.557786 73.707566 126.981352 77.721345 203.851288zM667.016985 494.302886H529.088965v-137.441501c45.976007-0.973037 85.505642-5.716593 119.197055-12.406224 11.068298 45.976007 17.514669 96.817199 18.730965 149.847725zM529.088965 320.73738V158.48343c32.475116 9.122224 64.098824 43.300154 88.911273 96.938829 7.784297 16.784891 14.717187 34.907709 20.67704 54.246823-30.89393 5.959853-67.139565 10.21689-109.588313 11.068298zM493.08659 158.848319v161.889061c-41.840599-0.973037-77.842974-5.230075-108.493645-11.311557 5.959853-19.217484 12.892743-37.340302 20.67704-54.003564 24.447559-52.908897 55.706378-86.965198 87.816605-96.57394zM493.08659 356.861385v137.441501H356.253237c1.216296-53.030526 7.662668-103.871719 18.730965-149.847725 33.326523 6.689631 72.49127 11.311557 118.102388 12.406224zM356.253237 530.305262h136.833353v139.752465c-45.489488 1.094667-84.532605 5.838223-117.859128 12.406224-11.311557-46.584155-17.879558-98.155125-18.974225-152.158689zM493.08659 706.181732V867.219385c-32.110227-9.608742-63.247417-43.665043-87.816605-96.57394-7.662668-16.541632-14.473928-34.42119-20.433781-53.273786 30.529041-5.959853 66.409787-10.21689 108.250386-11.189927zM529.088965 867.584274V706.060102c42.205488 0.851408 78.451122 5.108445 109.345053 11.189928-5.959853 18.974225-12.771113 36.853783-20.43378 53.395415-24.812448 53.638674-56.436156 87.816605-88.911273 96.938829zM529.088965 670.057727V530.305262h137.92802c-1.094667 53.760304-7.662668 105.452904-18.852595 151.915429-33.569783-6.568001-73.099418-11.189928-119.075425-12.162964zM703.019361 530.305262h165.173061c-3.770519 77.599715-32.353486 148.874688-78.086234 205.797363-18.001188-12.041335-52.544008-31.13719-106.79083-45.732747 11.676446-48.16534 18.609336-102.290533 19.704003-160.064616zM766.388407 263.206557c-16.176743 10.21689-46.097636 25.907115-92.316902 38.313338-17.028151-55.584749-40.624302-101.317496-68.720751-132.941204 61.90949 16.784891 117.25098 49.989785 161.037653 94.627866zM418.041098 168.578691c-28.096449 31.623708-51.6926 77.356456-68.720751 132.697945-46.097636-12.527854-76.01853-28.218078-92.073643-38.434968 43.665043-44.394821 98.884903-77.478085 160.794394-94.262977zM257.611593 763.712555c16.055113-10.21689 45.854377-25.785485 91.952013-38.191709 17.028151 55.09823 40.502673 100.587718 68.477492 132.089797-61.666231-16.784891-116.764461-49.746526-160.429505-93.898088zM605.229125 857.610643c27.974819-31.502079 51.57097-76.991567 68.477491-132.211427 45.732747 12.406224 75.77527 27.853189 92.073643 38.07008-43.665043 44.394821-98.763274 77.356456-160.551134 94.141347z" fill="#D7290F" p-id="2280"></path></svg>
