<?xml version="1.0" standalone="no"?><!DOCTYPE svg PUBLIC "-//W3C//DTD SVG 1.1//EN" "http://www.w3.org/Graphics/SVG/1.1/DTD/svg11.dtd"><svg t="1528456099353" class="icon" style="" viewBox="0 0 1024 1024" version="1.1" xmlns="http://www.w3.org/2000/svg" p-id="2949" xmlns:xlink="http://www.w3.org/1999/xlink" width="200" height="200"><defs><style type="text/css"></style></defs><path d="M901.293473 0h-779.09716c-35.204783 0-64.286996 28.571998-64.286996 63.776781v884.71151c0 35.714998 28.571998 64.286996 64.286996 64.286995h779.09716c64.286996 0 64.286996-47.449925 64.286995-64.286995V64.286996c0-35.714998-28.571998-64.286996-64.286995-64.286996zM490.060787 784.199302h-253.066268c-11.734928 0-20.918784-9.694071-20.918784-21.428998 0-11.734928 9.183857-21.428999 20.918784-21.428999h253.066268c11.734928 0.510214 20.918784 10.714499 20.40857 22.449427-1.020429 10.714499-9.694071 19.898356-20.40857 20.40857z m130.104634-170.921773h-383.170902c-11.734928 0-20.918784-9.694071-20.918784-21.428999 0-11.734928 9.183857-21.428999 20.918784-21.428998h383.170902c11.734928 0.510214 20.918784 10.714499 20.40857 22.449427-1.020429 11.224714-9.694071 19.898356-20.40857 20.40857z m133.165919-171.431988h-516.336821c-11.734928 0-20.918784-9.694071-20.918784-21.428999 0-11.734928 9.694071-21.428999 20.918784-21.428998H751.800698c11.734928-0.510214 21.939213 8.673642 22.449427 20.40857 0 12.245142-9.183857 21.939213-20.918785 22.449427z m0-171.431988h-515.826607c-11.734928 0-20.918784-9.694071-20.918784-21.428999 0-11.734928 9.694071-21.428999 20.918784-21.428998H751.800698c11.734928-0.510214 21.939213 8.673642 22.449427 20.40857 0 12.245142-9.183857 21.939213-20.918785 22.449427z" fill="#D7290F" p-id="2950"></path></svg>
