<?xml version="1.0" standalone="no"?><!DOCTYPE svg PUBLIC "-//W3C//DTD SVG 1.1//EN" "http://www.w3.org/Graphics/SVG/1.1/DTD/svg11.dtd"><svg t="1532315126944" class="icon" style="" viewBox="0 0 1024 1024" version="1.1" xmlns="http://www.w3.org/2000/svg" p-id="2187" xmlns:xlink="http://www.w3.org/1999/xlink" width="16" height="16"><defs><style type="text/css"></style></defs><path d="M414.148949 169.430099H237.177812c-37.705191 0-68.477491 30.89393-68.477491 68.477491v176.971137c0 37.705191 30.772301 68.477491 68.477491 68.477491h176.971137c37.705191 0 68.477491-30.89393 68.477491-68.477491V238.02922c0-37.705191-30.772301-68.599121-68.477491-68.599121zM785.241002 169.430099H608.269866c-37.705191 0-68.477491 30.89393-68.477492 68.477491v176.971137c0 37.705191 30.89393 68.477491 68.477492 68.477491h176.971136c37.705191 0 68.477491-30.89393 68.477492-68.477491V237.90759c0.12163-37.583561-30.772301-68.477491-68.477492-68.477491zM414.148949 540.643782H237.177812c-37.705191 0-68.477491 30.89393-68.477491 68.477491v176.971137c0 37.705191 30.772301 68.477491 68.477491 68.477491h176.971137c37.705191 0 68.477491-30.772301 68.477491-68.477491V609.121273c0-37.705191-30.772301-68.477491-68.477491-68.477491zM785.241002 540.643782H608.269866c-37.705191 0-68.477491 30.89393-68.477492 68.477491v176.971137c0 37.705191 30.89393 68.477491 68.477492 68.477491h176.971136c37.705191 0 68.477491-30.772301 68.477492-68.477491V609.121273c0.12163-37.705191-30.772301-68.477491-68.477492-68.477491z" fill="#D7290F" p-id="2188"></path></svg>
