<?xml version="1.0" standalone="no"?><!DOCTYPE svg PUBLIC "-//W3C//DTD SVG 1.1//EN" "http://www.w3.org/Graphics/SVG/1.1/DTD/svg11.dtd"><svg t="1532315354844" class="icon" style="" viewBox="0 0 1024 1024" version="1.1" xmlns="http://www.w3.org/2000/svg" p-id="2433" xmlns:xlink="http://www.w3.org/1999/xlink" width="16" height="16"><defs><style type="text/css"></style></defs><path d="M403.456 128H204.8c-41.984 0-76.8 34.816-76.8 76.8v198.656c0 41.984 34.816 76.8 76.8 76.8h198.656c41.984 0 76.8-34.816 76.8-76.8V204.8c0-41.984-34.816-76.8-76.8-76.8z m37.888 275.456c0 20.992-17.408 38.4-38.4 38.4H204.8c-20.992 0-38.4-17.408-38.4-38.4V204.8c0-20.992 17.408-38.4 38.4-38.4h198.656c20.992 0 38.4 17.408 38.4 38.4v198.656zM819.2 128h-198.656c-41.984 0-76.8 34.816-76.8 76.8v198.656c0 41.984 34.816 76.8 76.8 76.8h198.144c41.984 0 76.8-34.816 76.8-76.8V204.8c0.512-41.984-34.304-76.8-76.288-76.8z m38.4 275.456c0 20.992-17.408 38.4-38.4 38.4h-198.144c-20.992 0-38.4-17.408-38.4-38.4V204.8c0-20.992 17.408-38.4 38.4-38.4h198.656c20.992 0 38.4 17.408 38.4 38.4l-0.512 198.656zM403.456 543.744H204.8c-41.984 0-76.8 34.816-76.8 76.8V819.2c0 41.984 34.816 76.8 76.8 76.8h198.656c41.984 0 76.8-34.816 76.8-76.8v-198.656c0-41.984-34.816-76.8-76.8-76.8z m37.888 275.456c0 20.992-17.408 38.4-38.4 38.4H204.8c-20.992 0-38.4-17.408-38.4-38.4v-198.656c0-20.992 17.408-38.4 38.4-38.4h198.656c20.992 0 38.4 17.408 38.4 38.4V819.2zM819.2 543.744h-198.656c-41.984 0-76.8 34.816-76.8 76.8V819.2c0 41.984 34.816 76.8 76.8 76.8h198.144c41.984 0 76.8-34.816 76.8-76.8v-198.656c0.512-41.984-34.304-76.8-76.288-76.8z m38.4 275.456c0 20.992-17.408 38.4-38.4 38.4h-198.144c-20.992 0-38.4-17.408-38.4-38.4v-198.656c0-20.992 17.408-38.4 38.4-38.4h198.656c20.992 0 38.4 17.408 38.4 38.4l-0.512 198.656z" fill="#999999" p-id="2434"></path></svg>