<?xml version="1.0" standalone="no"?><!DOCTYPE svg PUBLIC "-//W3C//DTD SVG 1.1//EN" "http://www.w3.org/Graphics/SVG/1.1/DTD/svg11.dtd"><svg t="1528456061886" class="icon" style="" viewBox="0 0 1024 1024" version="1.1" xmlns="http://www.w3.org/2000/svg" p-id="2362" xmlns:xlink="http://www.w3.org/1999/xlink" width="200" height="200"><defs><style type="text/css"></style></defs><path d="M512 13.824c-160.256 0-290.304 130.048-290.304 290.304 0 115.712 68.608 216.064 166.912 262.144-182.272 53.248-315.392 221.696-315.392 420.864 0 12.8 10.24 23.04 23.04 23.04s23.04-10.24 23.04-23.04c0-216.576 176.128-392.704 392.704-392.704 160.256 0 290.304-130.048 290.304-290.304 0-160.256-130.56-290.304-290.304-290.304z m0 534.528c-135.168 0-244.224-109.568-244.224-244.224 0-135.168 109.568-244.224 244.224-244.224 135.168 0 244.224 109.568 244.224 244.224 0 134.656-109.568 244.224-244.224 244.224z m266.24 90.112c-10.24-7.68-24.576-5.632-32.256 4.096-7.68 10.24-5.632 24.576 4.096 32.256 97.792 74.24 155.136 189.952 154.624 312.32 0 12.8 10.24 23.04 23.04 23.04s23.04-10.24 23.04-23.04c0-137.728-62.976-264.704-172.544-348.672z" fill="#999999" p-id="2363"></path></svg>