<?xml version="1.0" standalone="no"?><!DOCTYPE svg PUBLIC "-//W3C//DTD SVG 1.1//EN" "http://www.w3.org/Graphics/SVG/1.1/DTD/svg11.dtd"><svg t="1528456075263" class="icon" style="" viewBox="0 0 1024 1024" version="1.1" xmlns="http://www.w3.org/2000/svg" p-id="2479" xmlns:xlink="http://www.w3.org/1999/xlink" width="200" height="200"><defs><style type="text/css"></style></defs><path d="M949.248 1010.176c12.288 0 22.528-9.728 23.04-22.016v-0.512-4.608-6.656c0-2.56 0-5.12-0.512-7.68v-4.608c0-2.56-0.512-4.608-0.512-7.168 0-2.048 0-3.584-0.512-5.632 0-1.536-0.512-3.584-0.512-5.12-0.512-3.072-0.512-5.632-1.024-8.704v-2.048c-19.968-176.128-140.288-321.024-301.056-374.272 92.16-48.64 155.648-145.408 155.648-257.024 0-160.256-130.048-290.304-290.304-290.304-160.256 0-290.304 130.048-290.304 290.304 0 111.616 63.488 208.384 155.648 257.024-165.376 54.272-287.744 205.824-302.592 389.12v1.024c-0.512 5.632-1.024 10.752-1.024 16.384v4.096c0 5.12-0.512 10.24-0.512 14.848V988.16c0.512 12.288 10.24 22.016 23.04 22.016" fill="#D7290F" p-id="2480"></path></svg>
