<?xml version="1.0" standalone="no"?><!DOCTYPE svg PUBLIC "-//W3C//DTD SVG 1.1//EN" "http://www.w3.org/Graphics/SVG/1.1/DTD/svg11.dtd"><svg t="1528456081077" class="icon" style="" viewBox="0 0 1024 1024" version="1.1" xmlns="http://www.w3.org/2000/svg" p-id="2596" xmlns:xlink="http://www.w3.org/1999/xlink" width="200" height="200"><defs><style type="text/css"></style></defs><path d="M512 1021.952c-25.6 0-50.176-10.24-68.096-28.16l-160.768-160.256h-111.616c-94.208 0-169.984-76.288-169.984-169.984v-430.08c0-111.616 90.624-202.24 202.24-202.24h665.6c84.48 0 153.088 68.608 153.088 153.088v479.232c0 94.208-76.288 169.984-169.984 169.984h-111.616l-160.768 160.256c-17.408 17.92-42.496 28.16-68.096 28.16z m-308.224-942.592c-84.992 0-153.6 68.608-153.6 153.6v430.08c0 67.072 54.784 121.856 121.856 121.856h131.584l174.592 174.592c18.944 17.92 48.64 17.92 68.096 0l174.592-174.592h131.584c67.072 0 121.344-54.272 121.344-121.856v-479.232c0-57.344-46.592-104.448-104.448-104.448h-665.6z" fill="#999999" p-id="2597"></path><path d="M755.2 371.2h-510.464c-13.312 0-24.064-10.752-24.064-24.064s10.752-24.576 24.064-24.576h510.464c13.312-0.512 25.088 9.728 25.6 23.04s-9.728 25.088-23.04 25.6h-2.56z m-72.704 169.984h-364.544c-13.312 0.512-25.088-9.728-25.6-23.04s9.728-25.088 23.04-25.6h367.104c13.312 0 24.064 10.752 24.576 24.064-0.512 13.824-11.264 24.576-24.576 24.576z" fill="#999999" p-id="2598"></path></svg>