<?xml version="1.0" standalone="no"?><!DOCTYPE svg PUBLIC "-//W3C//DTD SVG 1.1//EN" "http://www.w3.org/Graphics/SVG/1.1/DTD/svg11.dtd"><svg t="1528456087295" class="icon" style="" viewBox="0 0 1024 1024" version="1.1" xmlns="http://www.w3.org/2000/svg" p-id="2714" xmlns:xlink="http://www.w3.org/1999/xlink" width="200" height="200"><defs><style type="text/css"></style></defs><path d="M868.864 16.384h-665.6c-111.616 0-202.24 90.624-202.24 202.24v430.08c0 94.208 76.288 169.984 169.984 169.984h111.616l160.768 160.256c18.432 18.432 42.496 28.16 68.096 28.16s50.176-10.24 68.608-28.16l160.768-160.256h111.616c94.208 0 169.984-76.288 169.984-169.984v-479.232c-0.512-83.968-68.608-153.088-153.6-153.088z m-186.88 510.976H317.44c-13.312 0.512-25.088-9.728-25.6-23.04s9.728-25.088 23.04-25.6h367.104c13.312 0 24.064 10.752 24.576 24.064-0.512 13.312-11.264 24.576-24.576 24.576z m75.264-169.984h-513.024c-13.312 0-24.064-10.752-24.064-24.064s10.752-24.576 24.064-24.576h510.464c13.312-0.512 25.088 9.728 25.6 23.04s-9.728 24.064-23.04 25.6z" fill="#D7290F" p-id="2715"></path></svg>
