<?xml version="1.0" standalone="no"?><!DOCTYPE svg PUBLIC "-//W3C//DTD SVG 1.1//EN" "http://www.w3.org/Graphics/SVG/1.1/DTD/svg11.dtd"><svg t="1525836460878" class="icon" style="" viewBox="0 0 1024 1024" version="1.1" xmlns="http://www.w3.org/2000/svg" p-id="2905" xmlns:xlink="http://www.w3.org/1999/xlink" width="128" height="128"><defs><style type="text/css"></style></defs><path d="M508.995513 0c-281.106911 0-508.995513 227.888602-508.995513 508.995513s227.888602 508.995513 508.995513 508.995512 508.995513-227.888602 508.995512-508.995512c0-281.121049-227.888602-508.995513-508.995512-508.995513z m0 954.946275c-121.550956 0-231.677791-48.679765-312.113221-127.545792 20.359821-133.568906 124.081795-239.623776 256.5196-263.122402-68.827504-23.159296-118.468706-88.084501-118.468706-164.716604 0-96.044625 77.862175-173.892661 173.892661-173.892661 96.044625 0 173.892661 77.862175 173.892662 173.892661 0 76.632102-49.641201 141.557308-118.468706 164.716604 132.536776 23.512765 236.315305 129.694884 256.562016 263.391039-80.407152 78.710501-190.420877 127.277156-311.816306 127.277155z" p-id="2906" fill="#ffffff"></path></svg>