<?xml version="1.0" standalone="no"?><!DOCTYPE svg PUBLIC "-//W3C//DTD SVG 1.1//EN" "http://www.w3.org/Graphics/SVG/1.1/DTD/svg11.dtd"><svg t="1529129475993" class="icon" style="" viewBox="0 0 1024 1024" version="1.1" xmlns="http://www.w3.org/2000/svg" p-id="1826" xmlns:xlink="http://www.w3.org/1999/xlink" width="200" height="200"><defs><style type="text/css"></style></defs><path d="M679.05832 801.782635c33.448153 0 62.639268-5.594964 87.694976-16.663262 77.964604-33.448153 100.222829-64.098824 105.817793-84.897494 4.135408-16.663262-1.337926-34.786079-19.460743-54.246823-13.86578-16.663262-86.35705-97.425347-140.603873-97.425347-30.650671 1.337926-43.178525 12.527854-58.50386 26.515263-9.730372 9.730372-20.920299 19.460744-36.245635 26.515263-12.527854 5.594964-27.853189 9.730372-48.773488 9.730372h-1.337926c-100.222829-1.337926-217.23055-114.210239-218.568476-210.29766 0-19.460744 4.135408-34.786079 11.189927-48.773489 6.93289-15.325336 18.122817-25.055707 26.515263-34.786079 15.325336-13.86578 26.515263-26.515263 27.853189-55.706378-1.337926-52.908897-84.897494-122.481055-101.682385-136.468464-20.920299-16.906521-39.043117-22.379855-57.165934-18.244447-20.920299 4.135408-52.908897 26.515263-87.694976 101.682385C155.564319 233.772182 149.969355 264.301223 151.428911 297.749376c4.135408 268.679891 243.867443 500.01948 522.277705 504.154888l5.351704-0.121629z" fill="#D7290F" p-id="1827"></path></svg>
