<?xml version="1.0" standalone="no"?><!DOCTYPE svg PUBLIC "-//W3C//DTD SVG 1.1//EN" "http://www.w3.org/Graphics/SVG/1.1/DTD/svg11.dtd"><svg t="1529129482609" class="icon" style="" viewBox="0 0 1024 1024" version="1.1" xmlns="http://www.w3.org/2000/svg" p-id="1939" xmlns:xlink="http://www.w3.org/1999/xlink" width="200" height="200"><defs><style type="text/css"></style></defs><path d="M767.969593 169.551728h-510.844519c-20.55541 0-37.097042 16.663262-37.097042 37.097043v630.041572c0 20.55541 16.663262 37.097042 37.097042 37.097043h510.844519c20.55541 0 37.097042-16.663262 37.097042-37.097043V206.648771c0-20.55541-16.663262-37.097042-37.097042-37.097043z m-120.413351 565.334601h-267.828483v-37.097043h267.828483v37.097043z m0-126.008315h-267.828483v-37.097042h267.828483v37.097042z m82.343271-145.590688c-4.135408 0-7.541038-3.40563-7.541038-7.541038l-75.045492-75.045492-76.626678 76.626678c-1.459556 1.459556-3.40563 2.189334-5.351705 2.189333-4.135408 0-7.541038-3.40563-7.541038-7.541038V206.648771h177.579285v243.745813c1.459556 1.459556 2.189334 3.40563 2.189334 5.351704-0.12163 4.135408-3.52726 7.541038-7.662668 7.541038z" fill="#D7290F" p-id="1940"></path></svg>
