<?xml version="1.0" standalone="no"?><!DOCTYPE svg PUBLIC "-//W3C//DTD SVG 1.1//EN" "http://www.w3.org/Graphics/SVG/1.1/DTD/svg11.dtd"><svg t="1543376106359" class="icon" style="" viewBox="0 0 1024 1024" version="1.1" xmlns="http://www.w3.org/2000/svg" p-id="4494" xmlns:xlink="http://www.w3.org/1999/xlink" width="200" height="200"><defs><style type="text/css"></style></defs><path d="M532.1 918.9c-9.1 11-25.5 12.6-36.5 3.4-1.2-1-2.4-2.2-3.4-3.4-154.6-186.6-245.7-319-273.2-397.3-12-34.3-18.2-70.4-18.1-106.7 0-174.9 139.4-316.7 311.3-316.7S823.4 240 823.4 414.9c0 37.7-6.5 73.9-18.4 107.4-27.5 78.1-118.6 210.3-272.9 396.6z m-20-398.4c57.3 0 103.8-47.3 103.8-105.6s-46.4-105.5-103.8-105.5-103.8 47.2-103.8 105.5 46.5 105.6 103.8 105.6z" p-id="4495" fill="#D7290F"></path></svg>