<?xml version="1.0" standalone="no"?><!DOCTYPE svg PUBLIC "-//W3C//DTD SVG 1.1//EN" "http://www.w3.org/Graphics/SVG/1.1/DTD/svg11.dtd"><svg t="1534765330785" class="icon" style="" viewBox="0 0 1024 1024" version="1.1" xmlns="http://www.w3.org/2000/svg" p-id="2419" xmlns:xlink="http://www.w3.org/1999/xlink" width="16" height="16"><defs><style type="text/css"></style></defs><path d="M845.569308 446.259176l-120.534981-254.692482c-2.310963-4.500297-5.959853-6.689631-10.46015-6.68963l-433.731322 1.459556c-4.500297 0-9.000594 3.040741-10.460149 6.68963l-119.075425 255.422259c0 1.459556-0.729778 3.040741-0.729778 4.500297v3.040741c0 32.231857 14.960447 62.882528 41.232451 86.843569 24.690818 22.501485 56.922675 35.150968 88.424753 35.150968 46.827414 0.12163 89.032902-28.461337 106.425942-71.883122 6.689631 12.892743 15.203706 24.812448 25.420596 35.150968 23.231263 23.231263 53.881934 36.002376 85.384012 36.002376h0.729778c47.192303-0.729778 88.424754-29.191115 107.155719-71.153344 5.230075 12.771113 13.500891 23.961041 23.231263 34.42119 22.501485 23.231263 52.422378 36.002376 83.924456 36.002376h0.729778c62.15275-0.729778 133.306093-55.463119 133.306094-125.035277v-0.729778c-0.12163-1.581185-0.364889-3.162371-0.973037-4.500297z m-197.769807-77.964604l-299.573821 0.729778c-6.203112 0-11.189928-4.986816-11.189928-11.189928s4.986816-11.189928 11.189928-11.189927l299.573821-0.729778c6.203112 0 11.189928 4.986816 11.189928 11.189927 0.12163 6.203112-4.986816 11.189928-11.189928 11.189928z" fill="#D7290F" p-id="2420"></path><path d="M604.499347 761.158332c0-60.206675 29.069486-113.602091 73.829196-146.928614-20.312151-4.621927-38.921487-14.230669-54.125193-28.461337-9.487112-9.122224-17.39304-18.974225-22.501485-30.164152-18.122817 36.732153-58.017342 61.544601-103.62846 62.274379h-0.729777c-30.407412 0-60.206675-11.189928-82.708161-31.502079-9.852001-9.122224-18.244447-19.460744-24.690818-30.7723-16.784891 38.07008-57.652453 63.004157-103.020311 62.882527-6.568001 0-13.136002-0.486519-19.582373-1.581185l0.486518 156.658985c0.12163 4.743556 4.378667 8.514075 9.608742 8.635705l328.035159-1.337926c-0.608148-6.446371-0.973037-13.014372-0.973037-19.704003zM809.323673 671.638912c-29.191115-29.191115-76.505048-29.191115-105.817793 0-29.191115 29.191115-29.191115 76.626678 0 105.817793 13.500891 13.500891 32.231857 21.893337 52.908896 21.893337s39.408006-8.392446 52.908897-21.893337c13.500891-13.500891 21.893337-32.231857 21.893336-52.908896s-8.270816-39.408006-21.893336-52.908897zM687.329136 793.755078c-17.757928-17.757928-28.704597-42.205488-28.704596-69.207269 0-54.003563 43.786673-97.790236 97.790236-97.790237s97.790236 43.786673 97.790236 97.790237c0 27.001782-10.946668 51.449341-28.704596 69.207269-17.757928 17.757928-42.205488 28.704597-69.20727 28.704597-26.758522-0.12163-51.327711-11.068298-68.96401-28.704597z m182.80936 44.394821c-2.432593 2.432593-5.716593 3.892149-9.487112 3.892149-3.648889 0-7.05452-1.459556-9.487113-3.892149L832.311676 819.175674c-2.432593-2.432593-3.892149-5.716593-3.892149-9.487112 0-7.419408 5.959853-13.379261 13.379261-13.379262 3.648889 0 7.05452 1.459556 9.487113 3.892149l18.852595 18.852595c2.432593 2.432593 3.892149 5.716593 3.892149 9.487113 0 3.770519-1.581185 7.176149-3.892149 9.608742z" fill="#D7290F" p-id="2421"></path></svg>
