<?xml version="1.0" standalone="no"?><!DOCTYPE svg PUBLIC "-//W3C//DTD SVG 1.1//EN" "http://www.w3.org/Graphics/SVG/1.1/DTD/svg11.dtd"><svg t="1532571074800" class="icon" style="" viewBox="0 0 1024 1024" version="1.1" xmlns="http://www.w3.org/2000/svg" p-id="2152" xmlns:xlink="http://www.w3.org/1999/xlink" width="16" height="16"><defs><style type="text/css"></style></defs><path d="M784.754484 772.105001c-3.648889-0.364889-6.568001-2.554223-8.027557-5.838223L744.73833 705.208695l-29.799264 62.396009c-1.459556 3.284-4.378667 5.473334-8.027556 5.838223l-68.355862 10.703409 50.719563 47.070673c2.554223 2.554223 4.013778 6.203112 3.284 9.608742l-10.703409 67.990973 60.936454-32.718375c3.284-1.459556 6.93289-1.459556 10.33852 0l62.03112 30.89393-12.892743-67.990972c-0.364889-3.284 0.364889-6.93289 2.554223-9.608743l48.895118-49.260007-68.96401-8.027556z" fill="#D7290F" p-id="2153"></path><path d="M168.94358 870.381756h407.337689c9.608742-100.830978 90.005939-181.106545 191.080175-190.350398-16.420002-23.109633-35.637487-43.786673-57.044304-61.909491-33.813042-28.339708-71.274973-50.719563-113.480461-63.490676 39.651265-23.474522 71.274973-58.017342 91.100606-99.493051 54.368452-114.575128 5.473334-251.894999-109.101794-306.263452s-251.894999-5.473334-306.263452 109.101794c-54.003563 113.84535-6.203112 249.705666 106.91246 305.168785C256.395296 610.702459 168.94358 730.142772 168.94358 870.381756z" fill="#D7290F" p-id="2154"></path></svg>
