<?xml version="1.0" standalone="no"?><!DOCTYPE svg PUBLIC "-//W3C//DTD SVG 1.1//EN" "http://www.w3.org/Graphics/SVG/1.1/DTD/svg11.dtd"><svg t="1525772505558" class="icon" style="" viewBox="0 0 1024 1024" version="1.1" xmlns="http://www.w3.org/2000/svg" p-id="10130" xmlns:xlink="http://www.w3.org/1999/xlink" width="128" height="128"><defs><style type="text/css"></style></defs><path d="M926.72 870.4L768 714.666667a375.04 375.04 0 0 0-19.626667-517.973334 394.24 394.24 0 0 0-549.12 0 375.04 375.04 0 0 0 0 538.453334A395.093333 395.093333 0 0 0 708.266667 768l160.426666 157.44A42.666667 42.666667 0 0 0 896 938.666667a42.666667 42.666667 0 0 0 29.013333-11.52 40.106667 40.106667 0 0 0 1.706667-56.746667z m-759.466667-404.48a303.786667 303.786667 0 0 1 306.773334-298.666667 303.786667 303.786667 0 0 1 306.346666 298.666667 303.786667 303.786667 0 0 1-306.346666 298.666667 303.786667 303.786667 0 0 1-306.773334-298.666667z" p-id="10131" fill="#ffffff"></path></svg>