<?xml version="1.0" standalone="no"?><!DOCTYPE svg PUBLIC "-//W3C//DTD SVG 1.1//EN" "http://www.w3.org/Graphics/SVG/1.1/DTD/svg11.dtd"><svg t="1529129470847" class="icon" style="" viewBox="0 0 1024 1024" version="1.1" xmlns="http://www.w3.org/2000/svg" p-id="1711" xmlns:xlink="http://www.w3.org/1999/xlink" width="200" height="200"><defs><style type="text/css"></style></defs><path d="M800.201449 503.30348c-5.230075 0-12.527854-1.702815-18.122817-1.702815v-106.182682c0-149.361207-120.413351-269.774558-269.774558-269.774557s-269.774558 120.413351-269.774557 269.774557v106.182682c-5.230075 0-12.527854 1.702815-18.122818 1.702815-39.651265 0-72.126381-32.353486-72.126381-72.126381 0-34.056301 23.352892-63.004157 55.706379-69.937047C226.231144 208.594845 355.766718 89.884309 511.939185 89.884309S797.647227 208.594845 815.770044 361.361682c32.353486 7.297779 55.706378 35.759116 55.706378 69.937047 0.364889 39.651265-31.988597 72.004751-71.274973 72.004751z" fill="#D7290F" p-id="1712"></path><path d="M512.425704 629.311795c-129.413945 0-233.893812-104.479867-233.893812-233.893812S383.011759 161.524172 512.425704 161.524172 746.319515 266.004038 746.319515 395.417983s-104.479867 233.893812-233.893811 233.893812z" fill="#D7290F" p-id="1713"></path><path d="M321.588787 603.40468c48.28697 48.28697 115.183276 78.937641 190.715287 78.937641 73.829196 0 140.238983-28.947856 189.012472-77.234826 54.003563 41.47571 97.060458 97.060458 118.710536 165.294691 14.230669 41.47571 19.825632 75.532011 16.420002 115.183275-1.702815 26.758522-26.758522 48.28697-54.003563 48.28697H243.137665c-26.758522 0-52.179119-21.528448-54.003564-48.28697V862.232569c-0.486519-105.209645 51.81423-200.567288 132.454686-258.827889z" fill="#D7290F" p-id="1714"></path></svg>
