<?xml version="1.0" standalone="no"?><!DOCTYPE svg PUBLIC "-//W3C//DTD SVG 1.1//EN" "http://www.w3.org/Graphics/SVG/1.1/DTD/svg11.dtd"><svg t="1540275843958" class="icon" style="" viewBox="0 0 1024 1024" version="1.1" xmlns="http://www.w3.org/2000/svg" p-id="2097" xmlns:xlink="http://www.w3.org/1999/xlink" width="200" height="200"><defs><style type="text/css"></style></defs><path d="M369.389239 620.432831c-9.000594 9.000594-9.000594 23.596152 0 32.596745 9.000594 9.000594 23.596152 9.000594 32.596745 0 9.000594-9.000594 9.000594-23.596152 0-32.596745-8.878964-9.000594-23.596152-9.000594-32.596745 0zM672.733579 362.577978L482.74807 552.563487c-2.675852 2.675852-2.554223 6.81126 0 9.487113 2.554223 2.554223 6.81126 2.554223 9.487112 0l189.985509-189.985509c2.554223-2.554223 2.554223-6.93289 0-9.487113-2.675852-2.554223-6.93289-2.554223-9.487112 0z" fill="#D7290F" p-id="2098"></path><path d="M512.304074 95.479273L157.753652 221.974106v367.443164c0 218.081957 354.550422 341.536049 354.550422 341.53605s355.523459-124.427129 354.550422-342.630716V221.974106l-354.550422-126.494833z m-6.68963 479.707329c12.649483 34.664449 5.108445 75.045492-22.623115 102.898681-38.191709 38.191709-100.222829 38.191709-138.536168 0-38.313339-38.313339-38.313339-100.344459 0-138.536168 29.677634-29.677634 73.464307-36.245635 109.588312-19.947262l61.301342-61.301342 48.165341-8.149187 9.852001-54.733341 39.529635-10.703409 20.67704-40.381043 56.436157-2.067704 14.473928 34.056302-198.864473 198.864473z" fill="#D7290F" p-id="2099"></path></svg>
