<?xml version="1.0" standalone="no"?><!DOCTYPE svg PUBLIC "-//W3C//DTD SVG 1.1//EN" "http://www.w3.org/Graphics/SVG/1.1/DTD/svg11.dtd"><svg t="1543375750434" class="icon" style="" viewBox="0 0 1024 1024" version="1.1" xmlns="http://www.w3.org/2000/svg" p-id="3857" xmlns:xlink="http://www.w3.org/1999/xlink" width="200" height="200"><defs><style type="text/css"></style></defs><path d="M496.128 532.48l1.024 1.024M512 111.616c-221.184 0-400.896 179.2-400.896 400.896s179.2 400.896 400.896 400.896 400.896-179.2 400.896-400.896-179.712-400.896-400.896-400.896z m119.296 520.192c-9.728 9.728-27.136 9.216-38.4-2.048L496.64 533.504c-6.144-5.12-10.24-13.312-10.24-22.528V271.36c0-15.36 11.776-28.16 25.6-28.16s25.6 12.8 25.6 28.16v230.912l92.16 91.648c10.752 10.752 11.776 28.16 1.536 37.888z" p-id="3858" fill="#D7290F"></path></svg>