<?xml version="1.0" standalone="no"?><!DOCTYPE svg PUBLIC "-//W3C//DTD SVG 1.1//EN" "http://www.w3.org/Graphics/SVG/1.1/DTD/svg11.dtd"><svg t="1529129506271" class="icon" style="" viewBox="0 0 1024 1024" version="1.1" xmlns="http://www.w3.org/2000/svg" p-id="2165" xmlns:xlink="http://www.w3.org/1999/xlink" width="200" height="200"><defs><style type="text/css"></style></defs><path d="M763.590925 163.105357h-38.191709v289.47856c0 7.541038-5.838223 13.379261-13.379261 13.379262h-399.796651c-7.541038 0-13.379261-5.838223-13.379261-13.379262V163.956764v-0.851407h-38.191709c-55.584749 0-100.952607 45.367858-100.952607 100.952607v495.884072c0 55.584749 45.367858 100.952607 100.952607 100.952607H763.226036c55.584749 0 100.952607-45.367858 100.952608-100.952607V264.422853c0.851408-55.949638-44.516451-101.317496-100.587719-101.317496z" fill="#D7290F" p-id="2166"></path><path d="M341.17116 192.904621v231.217959h342.387457V192.904621h-342.387457z m290.816487 231.217959H589.782159V253.354555h42.205488v170.768025z" fill="#D7290F" p-id="2167"></path></svg>
